<svg width="89" height="89" viewBox="0 0 89 89" fill="none" xmlns="http://www.w3.org/2000/svg">
<path d="M17.3272 6.42212H62.0298C71.6032 6.42212 79.3569 14.0054 79.3569 23.3685V67.0886C79.3569 76.4516 71.6032 84.0349 62.0298 84.0349H17.3272C7.75372 84.0349 0 76.4516 0 67.0886V23.3685C0 14.0054 7.75372 6.42212 17.3272 6.42212Z" fill="url(#paint0_linear_1526_2378)"/>
<path d="M60.6846 10.6011H18.6721C10.681 10.6011 4.19318 16.9463 4.19318 24.7617V65.8509C4.19318 73.6663 10.681 80.0115 18.6721 80.0115H60.6846C68.6757 80.0115 75.1635 73.6663 75.1635 65.8509V24.6844C75.1635 16.8689 68.6757 10.6011 60.6846 10.6011ZM73.9767 66.0056C73.9767 73.1247 68.1218 78.8508 60.8428 78.8508H18.5138C11.3139 78.8508 5.37997 73.1247 5.37997 66.0056V24.5296C5.37997 17.4106 11.2348 11.6844 18.5138 11.6844H60.9219C68.1218 11.6844 74.0558 17.4106 74.0558 24.5296V66.0056H73.9767Z" fill="white"/>
<path d="M39.7974 13.3867C21.9163 13.3867 7.35834 27.6248 7.35834 45.1128C7.35834 62.6008 21.9163 76.8389 39.7974 76.8389C57.7575 76.8389 72.2364 62.6008 72.2364 45.1128C72.2364 27.6248 57.6784 13.3867 39.7974 13.3867ZM39.7974 76.3746C22.1537 76.3746 7.83305 62.3687 7.83305 45.1128C7.83305 27.8569 22.1537 13.851 39.7974 13.851C57.441 13.851 71.7617 27.8569 71.7617 45.1128C71.7617 62.3687 57.441 76.3746 39.7974 76.3746Z" fill="#69C5F3"/>
<path d="M39.7972 19.887C25.4765 19.887 13.925 31.1845 13.925 45.1904C13.925 59.1963 25.4765 70.4165 39.7972 70.4165C54.1178 70.4165 65.6693 59.119 65.6693 45.1131C65.6693 31.1072 54.0387 19.887 39.7972 19.887ZM39.7972 69.8749C25.793 69.8749 14.4789 58.8094 14.4789 45.1131C14.4789 31.4167 25.793 20.3512 39.7972 20.3512C53.8013 20.3512 65.1154 31.4167 65.1154 45.1131C65.1154 58.8094 53.7222 69.8749 39.7972 69.8749Z" fill="#68C5F4"/>
<path d="M15.0328 50.9163H64.4034C66.4605 50.9163 68.0429 52.5413 68.0429 54.4758C68.0429 56.4877 66.3814 58.0353 64.4034 58.0353H15.0328C12.9757 58.0353 11.3933 56.4103 11.3933 54.4758C11.3142 52.5413 12.9757 50.9163 15.0328 50.9163Z" fill="white"/>
<path d="M14.8747 51.6125H64.4035C65.9859 51.6125 67.331 52.8506 67.331 54.4756V54.553C67.331 56.1006 66.065 57.4161 64.4035 57.4161H14.8747C13.2923 57.4161 11.9473 56.178 11.9473 54.553V54.3983C12.0264 52.8506 13.2923 51.6125 14.8747 51.6125Z" fill="#0A93E9"/>
<path d="M13.6876 57.1071H65.6692L66.0648 56.875H13.292L13.6876 57.1071Z" fill="#1694EA"/>
<path d="M12.5005 56.1787H66.7766L66.9348 55.9465H12.3423L12.5005 56.1787Z" fill="#319DEC"/>
<path d="M12.0261 54.7082H67.3306V54.3987H12.0261V54.7082Z" fill="#65B1EE"/>
<path d="M12.58 52.7734H66.856L66.9352 52.9282L67.0143 53.083H12.4218L12.5009 52.9282L12.58 52.7734Z" fill="#8EC6F3"/>
<path d="M13.7667 51.845H65.6692L65.9065 51.9224L66.1439 52.0771H13.292L13.5294 51.9224L13.7667 51.845Z" fill="#95CAF3"/>
<path d="M62.9796 51.6125H62.584C62.584 51.6125 63.929 52.5411 63.929 54.6304C63.929 56.5649 62.584 57.4161 62.584 57.4161H62.9796C62.9796 57.4161 64.3246 56.7971 64.3246 54.6304C64.3246 52.309 62.9796 51.6125 62.9796 51.6125Z" fill="url(#paint1_linear_1526_2378)"/>
<path d="M59.1813 51.6125H58.7857C58.7857 51.6125 59.9725 52.6959 59.9725 54.6304C59.9725 56.3328 58.7857 57.4161 58.7857 57.4161H59.1813C59.1813 57.4161 60.3681 56.5649 60.3681 54.6304C60.289 52.5411 59.1813 51.6125 59.1813 51.6125Z" fill="url(#paint2_linear_1526_2378)"/>
<path d="M39.4808 51.6125H39.8764V57.4161H39.4808V51.6125Z" fill="url(#paint3_linear_1526_2378)"/>
<path d="M35.6037 51.6125H35.9993C35.9993 51.6125 35.8411 53.0828 35.8411 54.6304C35.8411 56.0232 35.9993 57.4161 35.9993 57.4161H35.6037C35.6037 57.4161 35.4455 56.0232 35.4455 54.6304C35.4455 53.0828 35.6037 51.6125 35.6037 51.6125Z" fill="url(#paint4_linear_1526_2378)"/>
<path d="M31.8062 51.6125H32.2018C32.2018 51.6125 31.8062 53.0828 31.8062 54.6304C31.8062 56.0232 32.2018 57.4161 32.2018 57.4161H31.8062C31.8062 57.4161 31.4106 56.0232 31.4106 54.6304C31.4106 53.0828 31.8062 51.6125 31.8062 51.6125Z" fill="url(#paint5_linear_1526_2378)"/>
<path d="M27.9291 51.6125H28.3247C28.3247 51.6125 27.7709 53.0828 27.7709 54.6304C27.7709 56.0232 28.3247 57.4161 28.3247 57.4161H27.9291C27.9291 57.4161 27.3753 56.0232 27.3753 54.6304C27.3753 53.0828 27.9291 51.6125 27.9291 51.6125Z" fill="url(#paint6_linear_1526_2378)"/>
<path d="M24.0526 51.6125H24.4482C24.4482 51.6125 23.657 52.8506 23.657 54.6304C23.657 56.178 24.4482 57.4161 24.4482 57.4161H24.0526C24.0526 57.4161 23.2614 56.178 23.2614 54.6304C23.2614 52.8506 24.0526 51.6125 24.0526 51.6125Z" fill="url(#paint7_linear_1526_2378)"/>
<path d="M20.1753 51.6125H20.5709C20.5709 51.6125 19.3841 52.6959 19.3841 54.6304C19.3841 56.3328 20.5709 57.4161 20.5709 57.4161H20.1753C20.1753 57.4161 18.9885 56.5649 18.9885 54.6304C19.0676 52.5411 20.1753 51.6125 20.1753 51.6125Z" fill="url(#paint8_linear_1526_2378)"/>
<path d="M16.3779 51.6125H16.7735C16.7735 51.6125 15.4285 52.5411 15.4285 54.6304C15.4285 56.5649 16.7735 57.4161 16.7735 57.4161H16.3779C16.3779 57.4161 15.0329 56.7971 15.0329 54.6304C15.0329 52.309 16.3779 51.6125 16.3779 51.6125Z" fill="url(#paint9_linear_1526_2378)"/>
<path d="M38.1358 22.1305L62.8211 63.9161C63.8497 65.6185 63.2167 67.7851 61.4761 68.7911C59.7354 69.797 57.5201 69.178 56.4915 67.4756L31.8062 25.69C30.7777 23.9877 31.4106 21.821 33.1513 20.8151C34.8919 19.8091 37.1072 20.4282 38.1358 22.1305Z" fill="white"/>
<path d="M37.5025 22.4402L62.2669 64.3806C63.0581 65.696 62.5834 67.4758 61.2384 68.2496L61.0801 68.327C59.7351 69.1008 57.9153 68.6365 57.1241 67.321L32.3597 25.3033C31.5685 23.9878 32.0432 22.2081 33.3883 21.4343L33.4674 21.3569C34.8915 20.5831 36.7113 21.0474 37.5025 22.4402Z" fill="url(#paint10_linear_1526_2378)"/>
<path d="M31.9641 24.1428L57.9153 68.1724L58.0735 68.2497L58.2318 68.3271L58.39 68.4045L31.9641 23.6785V24.1428Z" fill="url(#paint11_linear_1526_2378)"/>
<path d="M32.2018 22.6723L59.3398 68.6364H59.6563L32.36 22.4402L32.2809 22.5949L32.2018 22.6723Z" fill="url(#paint12_linear_1526_2378)"/>
<path d="M33.3096 21.5112L61.0015 68.3265L61.2388 68.1718L33.547 21.3564L33.3096 21.5112Z" fill="url(#paint13_linear_1526_2378)"/>
<path d="M35.2871 21.0471L62.346 66.9338L62.2669 67.0886L62.1877 67.2434L34.8915 20.9697H35.0497L35.2871 21.0471Z" fill="url(#paint14_linear_1526_2378)"/>
<path d="M36.7118 21.5117L62.663 65.4639V65.9282L36.2371 21.2795L36.3953 21.3569L36.5535 21.4343L36.7118 21.5117Z" fill="url(#paint15_linear_1526_2378)"/>
<path d="M61.4759 62.9877L61.3176 62.6782C61.3176 62.6782 61.1594 64.2258 59.4188 65.3092C57.7573 66.3151 56.254 65.6187 56.254 65.6187L56.4122 65.9282C56.4122 65.9282 57.6781 66.7794 59.577 65.6187C61.4759 64.5353 61.4759 62.9877 61.4759 62.9877ZM59.4979 59.7377L59.3397 59.4282C59.3397 59.4282 58.9441 60.9758 57.2825 61.9044C55.7793 62.833 54.276 62.3687 54.276 62.3687L54.4342 62.6782C54.4342 62.6782 55.7793 63.2199 57.5199 62.2139C59.2605 61.208 59.4979 59.7377 59.4979 59.7377Z" fill="#3C98EA"/>
<path d="M57.5987 56.4875L57.4404 56.178C57.4404 56.178 56.7283 57.4935 55.2251 58.3446C53.88 59.1184 52.3768 59.1184 52.3768 59.1184L52.535 59.428C52.535 59.428 53.9592 59.428 55.3833 58.6542C56.8866 57.803 57.5987 56.4875 57.5987 56.4875Z" fill="#4CA4ED"/>
<path d="M55.7 53.2373L55.5418 52.9277C55.5418 52.9277 54.5132 54.2432 53.1682 54.9396C51.9023 55.6361 50.399 55.8682 50.399 55.8682L50.5572 56.1777C50.5572 56.1777 52.0605 55.9456 53.3264 55.2492C54.5923 54.5527 55.7 53.2373 55.7 53.2373Z" fill="#4DA7EE"/>
<path d="M47.8675 40.083L48.0257 40.3925C48.0257 40.3925 46.6807 41.0116 45.3357 41.708C44.0697 42.4044 42.9621 43.333 42.9621 43.333L42.8038 43.0235C42.8038 43.0235 43.9906 42.0949 45.1774 41.3985C46.5225 40.7021 47.8675 40.083 47.8675 40.083Z" fill="url(#paint16_linear_1526_2378)"/>
<path d="M45.9683 36.833L46.1266 37.1425C46.1266 37.1425 44.6233 37.6068 43.3574 38.3806C42.0915 39.077 41.0629 40.1604 41.0629 40.1604L40.9047 39.8509C40.9047 39.8509 41.9332 38.7675 43.1991 38.0711C44.465 37.2199 45.9683 36.833 45.9683 36.833Z" fill="url(#paint17_linear_1526_2378)"/>
<path d="M42.4078 34.2792C43.4364 33.9697 44.2276 33.8149 44.2276 33.8149L44.0693 33.5054C44.0693 33.5054 43.3573 33.5828 42.5661 33.8923C42.0914 34.047 42.0122 34.4339 42.4078 34.2792Z" fill="#9DD4F7"/>
<path d="M40.1929 27.0828L40.3511 27.3923C40.3511 27.3923 38.8478 27.0054 37.1072 27.934C35.6039 28.8625 35.2875 30.3328 35.2875 30.3328L35.1292 30.0233C35.1292 30.0233 35.2875 28.7078 36.949 27.7018C38.6896 26.6185 40.1929 27.0828 40.1929 27.0828Z" fill="url(#paint18_linear_1526_2378)"/>
<path d="M38.2938 23.7558L38.5312 24.0653C38.5312 24.0653 36.9488 23.4463 35.129 24.4522C33.3884 25.5355 33.3884 27.0058 33.3884 27.0058L33.1511 26.6963C33.1511 26.6963 32.9928 25.3808 34.8917 24.2201C36.8697 23.0594 38.2938 23.7558 38.2938 23.7558Z" fill="url(#paint19_linear_1526_2378)"/>
<path d="M32.9929 50.9162C39.8763 39.3091 47.7882 25.8448 47.7882 25.8448C48.8168 24.1425 48.1838 21.9758 46.4432 20.9699C44.7025 19.9639 42.4872 20.5829 41.4586 22.2853C41.4586 22.2853 31.8061 38.69 24.5271 50.9162H32.9929ZM28.7204 58.0352C25.3974 63.6066 23.1029 67.6304 23.1029 67.6304C22.0744 69.3328 19.859 69.9518 18.1184 68.9459C16.3777 67.9399 15.7448 65.7733 16.7733 64.0709C16.7733 64.0709 18.1184 61.6721 20.2546 58.1126C22.9447 58.0352 27.8501 58.0352 28.7204 58.0352Z" fill="white"/>
<path d="M32.123 50.9164C39.0855 39.1545 47.1557 25.4581 47.1557 25.4581C47.9469 24.1427 47.4722 22.3629 46.1272 21.5891L46.0481 21.5117C44.703 20.7379 42.8833 21.2022 42.0921 22.5177C42.0921 22.5177 32.5977 38.6128 25.3187 50.9164H32.123ZM27.9297 58.0354C24.7649 63.452 22.4704 67.3211 22.4704 67.3211C21.6792 68.6366 19.9386 69.1008 18.5144 68.327H18.3562C17.0112 67.5532 16.5365 65.8508 17.3277 64.458C17.3277 64.458 18.8309 61.9044 21.1254 58.0354H27.9297Z" fill="url(#paint20_linear_1526_2378)"/>
<path d="M31.8848 50.9162L47.6296 24.2973V23.833C47.6296 23.833 38.9265 38.6127 31.6475 50.9162H31.8848ZM27.6124 58.0353L21.5993 68.2495L21.3619 68.4043L21.1246 68.4817C21.1246 68.4817 23.8146 63.9162 27.2959 58.0353H27.6124Z" fill="url(#paint21_linear_1526_2378)"/>
<path d="M30.698 50.9163L47.3131 22.8271L47.234 22.6723L47.1549 22.5176C47.1549 22.5176 38.0562 37.9163 30.4607 50.8389L30.698 50.9163ZM26.5047 58.0353L20.1751 68.7138H19.8586C19.8586 68.7138 22.5487 64.1484 26.1882 57.9579C26.3465 58.0353 26.5047 58.0353 26.5047 58.0353Z" fill="url(#paint22_linear_1526_2378)"/>
<path d="M28.958 50.9161C36.7909 37.684 46.2061 21.6662 46.2061 21.6662L45.9688 21.5115L28.5624 50.9161H28.958ZM24.6856 58.1125C21.2043 64.0708 18.5934 68.4815 18.5934 68.4815L18.356 68.3268C18.356 68.3268 20.8878 63.9935 24.3691 58.1125C24.5273 58.0352 24.4482 58.0352 24.6856 58.1125Z" fill="url(#paint23_linear_1526_2378)"/>
<path d="M27.0587 50.9163C34.8916 37.6842 44.6233 21.1248 44.6233 21.1248H44.3068C44.3068 21.1248 34.5751 37.6068 26.7422 50.9163H27.0587ZM22.4698 58.0353C19.305 63.3746 17.1688 67.0115 17.1688 67.0115L17.2479 67.1662L17.327 67.321C17.327 67.321 19.6215 63.452 22.8654 58.0353H22.4698Z" fill="url(#paint24_linear_1526_2378)"/>
<path d="M25.8717 50.9164L43.278 21.4343L43.1197 21.5117L42.9615 21.5891L42.8824 21.6665C42.8824 21.6665 33.2298 37.9938 25.6343 50.9164H25.8717ZM21.6783 58.0354C18.9091 62.7556 16.9312 66.083 16.9312 66.083V65.4639C16.9312 65.4639 18.6718 62.5235 21.3618 57.958C21.5201 58.0354 21.5201 58.0354 21.6783 58.0354Z" fill="url(#paint25_linear_1526_2378)"/>
<path d="M41.3006 23.7555L41.1423 24.0651C41.1423 24.0651 42.5665 23.3686 44.4654 24.3746C46.206 25.3032 46.2851 26.9282 46.2851 26.9282L46.4433 26.6186C46.4433 26.6186 46.6016 25.1484 44.6236 24.0651C42.6456 22.9817 41.3006 23.7555 41.3006 23.7555Z" fill="url(#paint26_linear_1526_2378)"/>
<path d="M39.4013 27.0831L39.243 27.3927C39.243 27.3927 40.8254 26.9284 42.4869 27.8569C44.0693 28.7081 44.3858 30.1784 44.3858 30.1784L44.5441 29.8688C44.5441 29.8688 44.3858 28.476 42.6452 27.5474C40.8254 26.5415 39.4013 27.0831 39.4013 27.0831Z" fill="url(#paint27_linear_1526_2378)"/>
<path d="M37.4233 30.333L37.2651 30.6425C37.2651 30.6425 38.6892 30.5651 40.2716 31.4937C41.6958 32.2675 42.4078 33.5056 42.4078 33.5056L42.5661 33.1961C42.5661 33.1961 41.854 31.958 40.4299 31.1842C38.9266 30.333 37.4233 30.333 37.4233 30.333Z" fill="url(#paint28_linear_1526_2378)"/>
<path d="M35.5252 33.6606L35.367 33.9702C35.367 33.9702 36.9494 34.2023 38.2944 34.9761C39.5603 35.6725 40.5098 36.8333 40.5098 36.8333L40.668 36.5237C40.668 36.5237 39.7186 35.363 38.4527 34.6666C37.1076 33.8928 35.5252 33.6606 35.5252 33.6606Z" fill="url(#paint29_linear_1526_2378)"/>
<path d="M33.5463 36.9099L33.3881 37.2194C33.3881 37.2194 34.8913 37.6063 36.2364 38.3801C37.5023 39.0766 38.5308 40.0825 38.5308 40.0825L38.6891 39.773C38.6891 39.773 37.6605 38.767 36.3946 38.0706C35.1287 37.3742 33.5463 36.9099 33.5463 36.9099Z" fill="url(#paint30_linear_1526_2378)"/>
<path d="M31.6477 40.1602L31.4103 40.4697C31.4103 40.4697 32.8345 41.0113 34.1795 41.7851C35.4454 42.4816 36.5531 43.3328 36.5531 43.3328L36.7114 43.0232C36.7114 43.0232 35.6037 42.1721 34.3378 41.4756C33.0719 40.7792 31.6477 40.1602 31.6477 40.1602Z" fill="url(#paint31_linear_1526_2378)"/>
<path d="M29.5121 43.7971L29.6703 43.4875L34.8131 46.3506L34.6549 46.6602L29.5121 43.7971Z" fill="url(#paint32_linear_1526_2378)"/>
<path d="M27.6129 47.1245L27.7711 46.8149C27.7711 46.8149 29.037 47.7435 30.382 48.4399C31.648 49.1364 32.9139 49.678 32.9139 49.678L32.7556 49.9102C32.7556 49.9102 31.4106 49.3685 30.1447 48.6721C28.7996 47.9757 27.6129 47.1245 27.6129 47.1245Z" fill="url(#paint33_linear_1526_2378)"/>
<path d="M26.3466 50.9164C25.951 50.6069 25.7136 50.3747 25.7136 50.3747L25.8719 50.0652C25.8719 50.0652 26.3466 50.4521 26.9795 50.9164H26.3466Z" fill="#73B9F1"/>
<path d="M23.2609 58.0352C23.5774 58.2673 23.8939 58.4994 24.2895 58.7316C25.7136 59.5054 27.1378 59.428 27.1378 59.428L26.9795 59.7375C26.9795 59.7375 25.5554 59.8149 24.1312 59.0411C23.5774 58.7316 23.1027 58.3447 22.7862 58.0352H23.2609Z" fill="url(#paint34_linear_1526_2378)"/>
<path d="M19.8586 60.2021L20.0169 59.8926C20.0169 59.8926 20.4125 61.4402 22.1531 62.3688C23.7355 63.2199 25.1597 62.7557 25.1597 62.7557L25.0014 63.0652C25.0014 63.0652 23.7355 63.6069 21.9949 62.6783C20.1751 61.6723 19.8586 60.2021 19.8586 60.2021Z" fill="url(#paint35_linear_1526_2378)"/>
<path d="M17.8808 63.5292L18.039 63.2197C18.039 63.2197 18.1973 64.8447 20.0961 65.8507C21.8368 66.7792 23.1818 66.0828 23.1818 66.0828L22.9445 66.3923C22.9445 66.3923 21.7577 67.2435 19.8588 66.1602C17.8808 65.0769 17.8808 63.5292 17.8808 63.5292Z" fill="url(#paint36_linear_1526_2378)"/>
<path d="M43.5153 84.1127L77.3785 14.5475L68.8336 10.6011L33.5463 82.952C33.5463 82.952 34.6539 83.4937 36.0781 84.1127H43.5153Z" fill="url(#paint37_linear_1526_2378)"/>
<path d="M63.5333 6.42212L79.3572 13.7733V35.9815C73.898 33.428 37.3447 16.4042 37.3447 16.4042C37.3447 16.4042 39.8766 11.2197 42.2501 6.42212H63.5333Z" fill="url(#paint38_radial_1526_2378)"/>
<path d="M24.2895 81.017C24.0522 81.4813 23.6566 82.0229 23.7357 82.8741C23.8148 86.0467 29.1158 88.9872 32.2015 88.9872C34.3377 88.9872 35.0498 88.136 35.841 86.5884C36.6322 85.0408 25.1598 79.1598 24.2895 81.017Z" fill="url(#paint39_radial_1526_2378)"/>
<path d="M60.7639 15.1663C60.7639 15.1663 68.9133 17.1008 69.5462 17.6424C70.1792 18.1841 68.5177 21.2793 68.2012 21.7436C65.5902 24.8388 57.4409 41.94 57.4409 41.94L49.9246 37.7614C49.9246 37.7614 56.6497 25.5353 59.0233 21.202C60.5266 18.2615 60.7639 15.1663 60.7639 15.1663Z" fill="url(#paint40_linear_1526_2378)"/>
<path d="M79.5945 11.1429C81.0187 12.1488 82.9175 11.9167 84.4208 11.6845C85.4494 11.5298 83.867 13 82.1263 16.4048C80.3857 19.8095 80.4648 20.0416 80.2275 19.8095C79.9901 19.5774 72.1573 15.244 72.3946 14.8571C72.7111 14.4702 73.977 6.03575 74.61 6.26789C76.9045 6.80955 77.3 9.51788 79.5945 11.1429Z" fill="url(#paint41_linear_1526_2378)"/>
<path d="M67.4097 20.6604C67.9636 19.8092 70.4954 14.5474 74.5305 14.5474C76.3502 14.5474 79.8315 19.0354 80.148 19.6545C80.3853 20.1962 79.5941 22.3628 79.1986 21.3569C78.7238 20.1962 76.7458 17.72 74.6096 17.72C72.4734 17.72 69.546 20.1188 68.8339 20.97C68.1218 21.7438 66.8559 21.5116 67.4097 20.6604Z" fill="url(#paint42_linear_1526_2378)"/>
<path d="M67.2515 20.3505C67.6471 19.7315 69.4668 17.0231 70.3372 16.1719C71.2075 15.3208 73.4228 13.0767 75.3217 12.7672C77.2206 12.4577 79.1986 16.2493 78.5656 17.0231C78.0909 17.5648 77.2997 16.9457 76.3503 16.1719C75.4008 15.4755 74.7679 14.0827 71.7613 16.3267C70.7328 17.1005 69.7042 17.7196 67.3306 21.0469C66.6977 21.8981 66.8559 20.9695 67.2515 20.3505Z" fill="url(#paint43_linear_1526_2378)"/>
<path d="M57.4412 42.9462C57.7577 42.3271 58.1533 41.3986 57.283 40.7021C56.3336 40.0057 51.9029 37.6843 51.1117 37.5295C50.3205 37.3748 49.6875 37.5295 49.371 38.0712C49.0546 38.6129 24.7648 79.3151 24.2901 80.4758C23.8154 81.6365 23.7363 82.4877 24.4484 82.7198C25.1604 82.952 33.3098 86.7436 34.101 87.5948C34.8922 88.446 35.2878 87.5174 35.6042 87.0532C37.1075 85.196 57.0456 43.5652 57.4412 42.9462Z" fill="url(#paint44_linear_1526_2378)"/>
<path d="M67.8055 20.1961C68.2011 19.6544 69.1505 18.1068 70.3373 16.714C71.1285 15.7854 75.4009 13.7735 76.3504 10.5235C76.9042 8.74377 76.0339 6.96402 74.8471 6.19021C70.812 3.79141 63.8495 -0.000244141 53.643 -0.000244141C46.7596 -0.000244141 43.8322 2.2438 43.8322 2.2438H47.3135L59.4188 6.88664L60.922 13.0771C60.922 13.0771 61.0803 15.1664 60.3682 17.5652C59.8935 19.4997 59.7353 20.6604 59.0232 22.5949C59.577 22.8271 60.8429 21.9759 62.2671 22.3628C63.533 22.6723 64.3242 24.3747 65.1945 23.3687C66.6978 21.4342 67.1725 21.0473 67.8055 20.1961Z" fill="url(#paint45_linear_1526_2378)"/>
<path d="M60.6851 15.3984C60.0521 9.67227 58.628 4.25562 43.7535 4.333C44.7029 3.40443 46.9974 2.47587 46.9974 2.47587L43.7535 2.24372C43.7535 2.24372 44.2282 1.85682 45.1776 1.77944C53.8808 1.08301 61.6345 2.86277 61.0807 13.9282C61.0016 15.708 60.8433 16.4818 60.6851 15.3984Z" fill="url(#paint46_linear_1526_2378)"/>
<path d="M43.7535 4.3335C44.782 3.9466 46.2062 3.71446 48.8963 3.86922C52.2193 4.02398 56.4126 5.26207 58.1532 6.80969C59.0236 7.58349 58.9444 6.96445 57.995 5.9585C55.5423 3.17279 51.8237 2.55375 46.9974 2.47637C46.4435 2.39899 44.6238 3.40494 43.7535 4.3335Z" fill="url(#paint47_linear_1526_2378)"/>
<path d="M84.5789 11.6846L88.9305 13.8512C88.9305 13.8512 87.269 16.0179 85.9239 18.4941C84.4998 21.125 83.5503 23.9881 83.5503 23.9881L79.357 21.5119C79.357 21.5119 80.3856 18.7262 81.8888 16.0179C83.0756 13.7738 84.5789 11.6846 84.5789 11.6846Z" fill="url(#paint48_linear_1526_2378)"/>
<path d="M88.9302 13.8511C89.2466 14.0058 88.2181 16.4046 86.7148 19.1903C85.2115 21.976 83.7874 24.1427 83.55 23.9879C83.2336 23.8332 84.2621 21.4344 85.7654 18.6487C87.1895 15.863 88.6137 13.6963 88.9302 13.8511Z" fill="#BFC0D0"/>
<defs>
<linearGradient id="paint0_linear_1526_2378" x1="3967.61" y1="7772.73" x2="3967.61" y2="5.18411" gradientUnits="userSpaceOnUse">
<stop stop-color="#1578E4"/>
<stop offset="1" stop-color="#00C3F2"/>
</linearGradient>
<linearGradient id="paint1_linear_1526_2378" x1="152.543" y1="629.337" x2="152.543" y2="50.3744" gradientUnits="userSpaceOnUse">
<stop stop-color="#1492E7"/>
<stop offset="1" stop-color="#DBEDFB"/>
</linearGradient>
<linearGradient id="paint2_linear_1526_2378" x1="133.316" y1="629.337" x2="133.316" y2="50.3744" gradientUnits="userSpaceOnUse">
<stop stop-color="#1492E7"/>
<stop offset="1" stop-color="#DBEDFB"/>
</linearGradient>
<linearGradient id="paint3_linear_1526_2378" x1="59.1421" y1="629.337" x2="59.1421" y2="50.3744" gradientUnits="userSpaceOnUse">
<stop stop-color="#1492E7"/>
<stop offset="1" stop-color="#DBEDFB"/>
</linearGradient>
<linearGradient id="paint4_linear_1526_2378" x1="63.2481" y1="629.337" x2="63.2481" y2="50.3744" gradientUnits="userSpaceOnUse">
<stop stop-color="#1492E7"/>
<stop offset="1" stop-color="#DBEDFB"/>
</linearGradient>
<linearGradient id="paint5_linear_1526_2378" x1="67.6474" y1="629.337" x2="67.6474" y2="50.3744" gradientUnits="userSpaceOnUse">
<stop stop-color="#1492E7"/>
<stop offset="1" stop-color="#DBEDFB"/>
</linearGradient>
<linearGradient id="paint6_linear_1526_2378" x1="71.9197" y1="629.337" x2="71.9197" y2="50.3744" gradientUnits="userSpaceOnUse">
<stop stop-color="#1492E7"/>
<stop offset="1" stop-color="#DBEDFB"/>
</linearGradient>
<linearGradient id="paint7_linear_1526_2378" x1="84.0253" y1="629.337" x2="84.0253" y2="50.3744" gradientUnits="userSpaceOnUse">
<stop stop-color="#1492E7"/>
<stop offset="1" stop-color="#DBEDFB"/>
</linearGradient>
<linearGradient id="paint8_linear_1526_2378" x1="102.222" y1="629.337" x2="102.222" y2="50.3744" gradientUnits="userSpaceOnUse">
<stop stop-color="#1492E7"/>
<stop offset="1" stop-color="#DBEDFB"/>
</linearGradient>
<linearGradient id="paint9_linear_1526_2378" x1="98.6623" y1="629.337" x2="98.6623" y2="50.3744" gradientUnits="userSpaceOnUse">
<stop stop-color="#1492E7"/>
<stop offset="1" stop-color="#DBEDFB"/>
</linearGradient>
<linearGradient id="paint10_linear_1526_2378" x1="1564.15" y1="4790.09" x2="1564.15" y2="22.8209" gradientUnits="userSpaceOnUse">
<stop stop-color="#1285E7"/>
<stop offset="1" stop-color="#00B5EF"/>
</linearGradient>
<linearGradient id="paint11_linear_1526_2378" x1="1790.87" y1="4502.32" x2="-337.998" y2="732.084" gradientUnits="userSpaceOnUse">
<stop stop-color="#2B90E7"/>
<stop offset="1" stop-color="#00B6EF"/>
</linearGradient>
<linearGradient id="paint12_linear_1526_2378" x1="1865.29" y1="4651.89" x2="-336.743" y2="752.171" gradientUnits="userSpaceOnUse">
<stop stop-color="#3795EA"/>
<stop offset="1" stop-color="#49C4F2"/>
</linearGradient>
<linearGradient id="paint13_linear_1526_2378" x1="1897.4" y1="4713.33" x2="-334.511" y2="760.695" gradientUnits="userSpaceOnUse">
<stop stop-color="#3696EA"/>
<stop offset="1" stop-color="#90D9F6"/>
</linearGradient>
<linearGradient id="paint14_linear_1526_2378" x1="1869.35" y1="4643.07" x2="-333.67" y2="741.597" gradientUnits="userSpaceOnUse">
<stop stop-color="#3097EA"/>
<stop offset="1" stop-color="#B5E5F9"/>
</linearGradient>
<linearGradient id="paint15_linear_1526_2378" x1="1802.47" y1="4485.06" x2="-324.514" y2="718.232" gradientUnits="userSpaceOnUse">
<stop stop-color="#3A98EA"/>
<stop offset="1" stop-color="#BCE7FA"/>
</linearGradient>
<linearGradient id="paint16_linear_1526_2378" x1="49.2125" y1="259.802" x2="480.467" y2="5.21631" gradientUnits="userSpaceOnUse">
<stop stop-color="#00A4EC"/>
<stop offset="1" stop-color="#B9DFF6"/>
</linearGradient>
<linearGradient id="paint17_linear_1526_2378" x1="39.8761" y1="257.594" x2="473.517" y2="1.56047" gradientUnits="userSpaceOnUse">
<stop stop-color="#00A4EC"/>
<stop offset="1" stop-color="#B9DFF6"/>
</linearGradient>
<linearGradient id="paint18_linear_1526_2378" x1="13.7669" y1="237.113" x2="445.396" y2="-17.6419" gradientUnits="userSpaceOnUse">
<stop stop-color="#00B4EF"/>
<stop offset="1" stop-color="#C3E9FA"/>
</linearGradient>
<linearGradient id="paint19_linear_1526_2378" x1="11.6338" y1="240.144" x2="446.207" y2="-16.4007" gradientUnits="userSpaceOnUse">
<stop stop-color="#00B4EF"/>
<stop offset="1" stop-color="#C3E9FA"/>
</linearGradient>
<linearGradient id="paint20_linear_1526_2378" x1="1548.01" y1="4786.72" x2="1548.01" y2="19.5305" gradientUnits="userSpaceOnUse">
<stop stop-color="#1285E7"/>
<stop offset="1" stop-color="#00B5EF"/>
</linearGradient>
<linearGradient id="paint21_linear_1526_2378" x1="904.483" y1="4498.83" x2="3035.35" y2="725.186" gradientUnits="userSpaceOnUse">
<stop stop-color="#3194E9"/>
<stop offset="1" stop-color="#71CFF4"/>
</linearGradient>
<linearGradient id="paint22_linear_1526_2378" x1="933.18" y1="4656.23" x2="3135.48" y2="755.962" gradientUnits="userSpaceOnUse">
<stop stop-color="#5AA6EC"/>
<stop offset="1" stop-color="#A2DEF8"/>
</linearGradient>
<linearGradient id="paint23_linear_1526_2378" x1="945.721" y1="4709.62" x2="3176.35" y2="759.246" gradientUnits="userSpaceOnUse">
<stop stop-color="#66ABEE"/>
<stop offset="1" stop-color="#BEE8FA"/>
</linearGradient>
<linearGradient id="paint24_linear_1526_2378" x1="927.951" y1="4639.36" x2="3131.71" y2="736.563" gradientUnits="userSpaceOnUse">
<stop stop-color="#7BB6F0"/>
<stop offset="1" stop-color="#B1E3F9"/>
</linearGradient>
<linearGradient id="paint25_linear_1526_2378" x1="891.709" y1="4484.13" x2="3018.5" y2="717.601" gradientUnits="userSpaceOnUse">
<stop stop-color="#5AA6EC"/>
<stop offset="1" stop-color="#AFE3F9"/>
</linearGradient>
<linearGradient id="paint26_linear_1526_2378" x1="85.6075" y1="114.229" x2="521.281" y2="371.423" gradientUnits="userSpaceOnUse">
<stop stop-color="#C1E7FA"/>
<stop offset="1" stop-color="#89D4F5"/>
</linearGradient>
<linearGradient id="paint27_linear_1526_2378" x1="75.3216" y1="117.141" x2="504.81" y2="370.616" gradientUnits="userSpaceOnUse">
<stop stop-color="#C1E7FA"/>
<stop offset="1" stop-color="#89D4F5"/>
</linearGradient>
<linearGradient id="paint28_linear_1526_2378" x1="66.7767" y1="123.91" x2="494.118" y2="376.157" gradientUnits="userSpaceOnUse">
<stop stop-color="#C1E7FA"/>
<stop offset="1" stop-color="#89D4F5"/>
</linearGradient>
<linearGradient id="paint29_linear_1526_2378" x1="56.0172" y1="128.687" x2="483.324" y2="380.981" gradientUnits="userSpaceOnUse">
<stop stop-color="#B0DFF8"/>
<stop offset="1" stop-color="#52BDF2"/>
</linearGradient>
<linearGradient id="paint30_linear_1526_2378" x1="53.168" y1="136.254" x2="480.646" y2="388.571" gradientUnits="userSpaceOnUse">
<stop stop-color="#B4DEF8"/>
<stop offset="1" stop-color="#4EB5F0"/>
</linearGradient>
<linearGradient id="paint31_linear_1526_2378" x1="50.399" y1="143.822" x2="477.74" y2="396.068" gradientUnits="userSpaceOnUse">
<stop stop-color="#B4DEF8"/>
<stop offset="1" stop-color="#4EB5F0"/>
</linearGradient>
<linearGradient id="paint32_linear_1526_2378" x1="40.5097" y1="148.105" x2="467.765" y2="400.34" gradientUnits="userSpaceOnUse">
<stop stop-color="#B5DDF8"/>
<stop offset="1" stop-color="#46AEEE"/>
</linearGradient>
<linearGradient id="paint33_linear_1526_2378" x1="30.382" y1="152.483" x2="455.489" y2="403.439" gradientUnits="userSpaceOnUse">
<stop stop-color="#96CEF4"/>
<stop offset="1" stop-color="#46AAEE"/>
</linearGradient>
<linearGradient id="paint34_linear_1526_2378" x1="32.2014" y1="125.06" x2="338.895" y2="306.121" gradientUnits="userSpaceOnUse">
<stop stop-color="#8FC1F2"/>
<stop offset="1" stop-color="#3193EA"/>
</linearGradient>
<linearGradient id="paint35_linear_1526_2378" x1="-1.18716" y1="183.783" x2="431.018" y2="438.93" gradientUnits="userSpaceOnUse">
<stop stop-color="#8FC1F2"/>
<stop offset="1" stop-color="#3193EA"/>
</linearGradient>
<linearGradient id="paint36_linear_1526_2378" x1="-3.95621" y1="188.907" x2="433.333" y2="447.094" gradientUnits="userSpaceOnUse">
<stop stop-color="#8FC1F2"/>
<stop offset="1" stop-color="#3193EA"/>
</linearGradient>
<linearGradient id="paint37_linear_1526_2378" x1="2032.02" y1="3549.45" x2="2488.18" y2="3776.91" gradientUnits="userSpaceOnUse">
<stop offset="0.001"/>
<stop offset="1" stop-opacity="0"/>
</linearGradient>
<radialGradient id="paint38_radial_1526_2378" cx="0" cy="0" r="1" gradientUnits="userSpaceOnUse" gradientTransform="translate(-1436.48 1981.82) rotate(110.307) scale(1657.81 966.873)">
<stop/>
<stop offset="1" stop-opacity="0"/>
</radialGradient>
<radialGradient id="paint39_radial_1526_2378" cx="0" cy="0" r="1" gradientUnits="userSpaceOnUse" gradientTransform="translate(240.331 687.89) rotate(34.3853) scale(680.149 561.923)">
<stop offset="0.417" stop-color="#0C0C12"/>
<stop offset="1" stop-color="#3D4651"/>
</radialGradient>
<linearGradient id="paint40_linear_1526_2378" x1="847.106" y1="1104.22" x2="1321.56" y2="1351.4" gradientUnits="userSpaceOnUse">
<stop stop-color="#344351"/>
<stop offset="0.1" stop-color="#9697A0"/>
<stop offset="0.181" stop-color="#8B8C95"/>
<stop offset="0.351" stop-color="#787A83"/>
<stop offset="0.47" stop-color="#71747D"/>
<stop offset="0.591" stop-color="#777982"/>
<stop offset="0.749" stop-color="#87898F"/>
<stop offset="0.8" stop-color="#8E8F94"/>
<stop offset="0.849" stop-color="#3D3B42"/>
<stop offset="0.9" stop-color="#606E84"/>
</linearGradient>
<linearGradient id="paint41_linear_1526_2378" x1="988.516" y1="1218.28" x2="204.837" y2="135.476" gradientUnits="userSpaceOnUse">
<stop offset="0.27" stop-color="#262B33"/>
<stop offset="0.45" stop-color="#74747E"/>
<stop offset="0.54" stop-color="#B0B0BC"/>
<stop offset="0.73" stop-color="#74747E"/>
</linearGradient>
<linearGradient id="paint42_linear_1526_2378" x1="44.6719" y1="405.852" x2="1316.73" y2="237.847" gradientUnits="userSpaceOnUse">
<stop offset="0.14" stop-color="#606E84"/>
<stop offset="0.4" stop-color="#9899A5"/>
<stop offset="0.73" stop-color="#475768"/>
<stop offset="0.92" stop-color="#262B33"/>
</linearGradient>
<linearGradient id="paint43_linear_1526_2378" x1="681.365" y1="629.602" x2="612.503" y2="230.337" gradientUnits="userSpaceOnUse">
<stop stop-color="#101215" stop-opacity="0.1"/>
<stop offset="0.46" stop-color="#101215" stop-opacity="0.7"/>
<stop offset="0.7" stop-color="#474951"/>
<stop offset="0.91" stop-color="#7B7D88"/>
</linearGradient>
<linearGradient id="paint44_linear_1526_2378" x1="1468.5" y1="2188.23" x2="2110.74" y2="2511.35" gradientUnits="userSpaceOnUse">
<stop offset="0.115" stop-color="#2C3952"/>
<stop offset="0.374" stop-color="#3D414E"/>
<stop offset="0.55" stop-color="#474A54"/>
<stop offset="0.754" stop-color="#4E5057"/>
<stop offset="0.892" stop-color="#323945"/>
<stop offset="1" stop-color="#143052"/>
</linearGradient>
<linearGradient id="paint45_linear_1526_2378" x1="1017.64" y1="1646" x2="1575.58" y2="394.274" gradientUnits="userSpaceOnUse">
<stop offset="0.118" stop-color="#6D7078" stop-opacity="0"/>
<stop offset="0.2" stop-color="#6D7078" stop-opacity="0.7"/>
<stop offset="0.34" stop-color="#35363A"/>
<stop offset="0.374" stop-color="#1D1F22"/>
<stop offset="0.4" stop-color="#101215"/>
<stop offset="0.5" stop-color="#16171A"/>
<stop offset="0.56" stop-color="#292A2E"/>
<stop offset="0.688" stop-color="#4B4D51"/>
<stop offset="0.807" stop-color="#63666B"/>
<stop offset="0.915" stop-color="#72757B"/>
<stop offset="1" stop-color="#777A80"/>
</linearGradient>
<linearGradient id="paint46_linear_1526_2378" x1="40.9052" y1="714.135" x2="1778.53" y2="714.135" gradientUnits="userSpaceOnUse">
<stop stop-color="#4A4D56"/>
<stop offset="1" stop-color="#29292D"/>
</linearGradient>
<linearGradient id="paint47_linear_1526_2378" x1="40.9052" y1="234.802" x2="1543.39" y2="234.802" gradientUnits="userSpaceOnUse">
<stop stop-color="#767880"/>
<stop offset="0.41" stop-color="#0C0A0B"/>
</linearGradient>
<linearGradient id="paint48_linear_1526_2378" x1="383.088" y1="1107.09" x2="887.99" y2="212.908" gradientUnits="userSpaceOnUse">
<stop stop-color="#858997"/>
<stop offset="0.23" stop-color="#244668"/>
<stop offset="0.282" stop-color="#1A3249"/>
<stop offset="0.4" stop-color="#040506"/>
<stop offset="0.464" stop-color="#313236"/>
<stop offset="0.546" stop-color="#65656E"/>
<stop offset="0.607" stop-color="#868691"/>
<stop offset="0.64" stop-color="#92929E"/>
</linearGradient>
</defs>
</svg>
