<svg width="345" height="122" viewBox="0 0 345 122" fill="none" xmlns="http://www.w3.org/2000/svg">
<g clip-path="url(#clip0_27829_62897)">
<rect width="345" height="122" rx="14" fill="url(#paint0_radial_27829_62897)"/>
<path d="M313.372 155H251.182C249.424 155 248 153.577 248 151.819V22.1975C248 20.4399 249.424 19.0167 251.182 19.0167H313.372C315.129 19.0167 316.554 20.4399 316.554 22.1975V151.819C316.554 153.577 315.129 155 313.372 155Z" fill="#282F39"/>
<path d="M310.923 21.7535H296.353C295.876 21.7535 295.447 22.0837 295.276 22.5847L294.877 23.7522C294.479 24.9155 293.485 25.6827 292.377 25.6827H272.661C271.554 25.6827 270.561 24.9155 270.163 23.7522L269.763 22.5847C269.593 22.0837 269.164 21.7535 268.687 21.7535H254.116C252.46 21.7535 251.117 23.2638 251.117 25.1273V148.515C251.117 150.377 252.46 151.889 254.116 151.889H310.923C312.579 151.889 313.923 150.377 313.923 148.515V25.1273C313.923 23.2638 312.579 21.7535 310.923 21.7535Z" fill="white"/>
<path d="M17.48 39L21.512 27.16H24.792L28.824 39H26.232L25.48 36.68H20.84L20.072 39H17.48ZM21.528 34.536H24.792L23.16 29.592L21.528 34.536ZM33.6221 39.16C32.9928 39.16 32.4435 39.0373 31.9741 38.792C31.5155 38.536 31.1315 38.2 30.8221 37.784C30.5128 37.3573 30.2781 36.8827 30.1181 36.36C29.9688 35.8373 29.8941 35.304 29.8941 34.76C29.8941 34.216 29.9688 33.6827 30.1181 33.16C30.2781 32.6373 30.5128 32.168 30.8221 31.752C31.1315 31.3253 31.5155 30.9893 31.9741 30.744C32.4435 30.488 32.9928 30.36 33.6221 30.36C34.1661 30.36 34.6141 30.4507 34.9661 30.632C35.3181 30.8027 35.5848 30.9893 35.7661 31.192C35.9581 31.3947 36.0755 31.5333 36.1181 31.608H36.2461V26.84H38.6781V39H36.2461V37.912H36.1181C36.0755 37.9867 35.9581 38.1253 35.7661 38.328C35.5848 38.5307 35.3181 38.7227 34.9661 38.904C34.6141 39.0747 34.1661 39.16 33.6221 39.16ZM34.3261 37.192C34.7635 37.192 35.1261 37.0747 35.4141 36.84C35.7128 36.5947 35.9315 36.2853 36.0701 35.912C36.2195 35.5387 36.2941 35.1547 36.2941 34.76C36.2941 34.3653 36.2195 33.9813 36.0701 33.608C35.9315 33.2347 35.7128 32.9307 35.4141 32.696C35.1261 32.4507 34.7635 32.328 34.3261 32.328C33.8888 32.328 33.5208 32.4507 33.2221 32.696C32.9341 32.9307 32.7155 33.2347 32.5661 33.608C32.4275 33.9813 32.3581 34.3653 32.3581 34.76C32.3581 35.1547 32.4275 35.5387 32.5661 35.912C32.7155 36.2853 32.9341 36.5947 33.2221 36.84C33.5208 37.0747 33.8888 37.192 34.3261 37.192ZM44.2159 39.16C43.5865 39.16 43.0372 39.0373 42.5679 38.792C42.1092 38.536 41.7252 38.2 41.4159 37.784C41.1065 37.3573 40.8719 36.8827 40.7119 36.36C40.5625 35.8373 40.4879 35.304 40.4879 34.76C40.4879 34.216 40.5625 33.6827 40.7119 33.16C40.8719 32.6373 41.1065 32.168 41.4159 31.752C41.7252 31.3253 42.1092 30.9893 42.5679 30.744C43.0372 30.488 43.5865 30.36 44.2159 30.36C44.7599 30.36 45.2079 30.4507 45.5599 30.632C45.9119 30.8027 46.1785 30.9893 46.3599 31.192C46.5519 31.3947 46.6692 31.5333 46.7119 31.608H46.8399V26.84H49.2719V39H46.8399V37.912H46.7119C46.6692 37.9867 46.5519 38.1253 46.3599 38.328C46.1785 38.5307 45.9119 38.7227 45.5599 38.904C45.2079 39.0747 44.7599 39.16 44.2159 39.16ZM44.9199 37.192C45.3572 37.192 45.7199 37.0747 46.0079 36.84C46.3065 36.5947 46.5252 36.2853 46.6639 35.912C46.8132 35.5387 46.8879 35.1547 46.8879 34.76C46.8879 34.3653 46.8132 33.9813 46.6639 33.608C46.5252 33.2347 46.3065 32.9307 46.0079 32.696C45.7199 32.4507 45.3572 32.328 44.9199 32.328C44.4825 32.328 44.1145 32.4507 43.8159 32.696C43.5279 32.9307 43.3092 33.2347 43.1599 33.608C43.0212 33.9813 42.9519 34.3653 42.9519 34.76C42.9519 35.1547 43.0212 35.5387 43.1599 35.912C43.3092 36.2853 43.5279 36.5947 43.8159 36.84C44.1145 37.0747 44.4825 37.192 44.9199 37.192ZM58.5909 30.36C59.1349 30.36 59.5829 30.4507 59.9349 30.632C60.2869 30.8027 60.5535 30.9893 60.7349 31.192C60.9269 31.3947 61.0442 31.5333 61.0869 31.608H61.2149V30.52H63.6469V39H61.2149V37.912H61.0869C61.0442 37.9867 60.9269 38.1253 60.7349 38.328C60.5535 38.5307 60.2869 38.7227 59.9349 38.904C59.5829 39.0747 59.1349 39.16 58.5909 39.16C57.9615 39.16 57.4122 39.0373 56.9429 38.792C56.4842 38.536 56.1002 38.2 55.7909 37.784C55.4815 37.3573 55.2469 36.8827 55.0869 36.36C54.9375 35.8373 54.8629 35.304 54.8629 34.76C54.8629 34.216 54.9375 33.6827 55.0869 33.16C55.2469 32.6373 55.4815 32.168 55.7909 31.752C56.1002 31.3253 56.4842 30.9893 56.9429 30.744C57.4122 30.488 57.9615 30.36 58.5909 30.36ZM59.2949 32.328C58.8575 32.328 58.4895 32.4507 58.1909 32.696C57.9029 32.9307 57.6842 33.2347 57.5349 33.608C57.3962 33.9813 57.3269 34.3653 57.3269 34.76C57.3269 35.1547 57.3962 35.5387 57.5349 35.912C57.6842 36.2853 57.9029 36.5947 58.1909 36.84C58.4895 37.0747 58.8575 37.192 59.2949 37.192C59.7322 37.192 60.0949 37.0747 60.3829 36.84C60.6815 36.5947 60.9002 36.2853 61.0389 35.912C61.1882 35.5387 61.2629 35.1547 61.2629 34.76C61.2629 34.3653 61.1882 33.9813 61.0389 33.608C60.9002 33.2347 60.6815 32.9307 60.3829 32.696C60.0949 32.4507 59.7322 32.328 59.2949 32.328ZM72.7616 39.16C72.0576 39.16 71.4763 39.064 71.0176 38.872C70.559 38.68 70.191 38.4453 69.9136 38.168C69.647 37.88 69.4443 37.5973 69.3056 37.32C69.1776 37.032 69.0923 36.792 69.0496 36.6C69.0176 36.408 69.0016 36.312 69.0016 36.312H71.2576C71.2576 36.312 71.2736 36.3653 71.3056 36.472C71.3376 36.5787 71.407 36.7013 71.5136 36.84C71.631 36.9787 71.7963 37.1013 72.0096 37.208C72.223 37.3147 72.511 37.368 72.8736 37.368C73.3216 37.368 73.6256 37.2773 73.7856 37.096C73.9563 36.9147 74.0416 36.7333 74.0416 36.552C74.0416 36.168 73.727 35.912 73.0976 35.784L71.9456 35.56C71.455 35.464 70.991 35.3253 70.5536 35.144C70.127 34.952 69.7803 34.6907 69.5136 34.36C69.2576 34.0187 69.1296 33.5813 69.1296 33.048C69.1296 32.536 69.263 32.0773 69.5296 31.672C69.7963 31.2667 70.175 30.9467 70.6656 30.712C71.167 30.4773 71.7643 30.36 72.4576 30.36C73.1083 30.36 73.647 30.4507 74.0736 30.632C74.511 30.8027 74.8576 31.0213 75.1136 31.288C75.3696 31.544 75.5616 31.8053 75.6896 32.072C75.8176 32.328 75.8976 32.5467 75.9296 32.728C75.9723 32.8987 75.9936 32.984 75.9936 32.984H73.8176C73.8176 32.984 73.7856 32.9147 73.7216 32.776C73.6576 32.6267 73.5243 32.4827 73.3216 32.344C73.1296 32.1947 72.831 32.12 72.4256 32.12C72.0096 32.12 71.7216 32.2053 71.5616 32.376C71.4016 32.536 71.3216 32.7067 71.3216 32.888C71.3216 33.1013 71.4123 33.2613 71.5936 33.368C71.7856 33.4747 72.031 33.56 72.3296 33.624L73.4336 33.848C74.2443 34.008 74.911 34.2907 75.4336 34.696C75.9563 35.0907 76.2176 35.6667 76.2176 36.424C76.2176 36.936 76.0843 37.4 75.8176 37.816C75.551 38.232 75.1616 38.5627 74.6496 38.808C74.1376 39.0427 73.5083 39.16 72.7616 39.16ZM81.9489 39.16C81.2022 39.16 80.5569 39.0373 80.0129 38.792C79.4689 38.536 79.0209 38.2 78.6689 37.784C78.3169 37.3573 78.0502 36.8827 77.8689 36.36C77.6982 35.8373 77.6129 35.2987 77.6129 34.744C77.6129 34.2107 77.6929 33.688 77.8529 33.176C78.0235 32.6533 78.2795 32.1787 78.6209 31.752C78.9729 31.3253 79.4155 30.9893 79.9489 30.744C80.4929 30.488 81.1329 30.36 81.8689 30.36C82.6475 30.36 83.3355 30.5307 83.9329 30.872C84.5409 31.2133 85.0155 31.72 85.3569 32.392C85.6982 33.0533 85.8689 33.8587 85.8689 34.808V35.4H80.0609C80.0929 35.912 80.2689 36.3547 80.5889 36.728C80.9195 37.1013 81.3729 37.288 81.9489 37.288C82.2795 37.288 82.5462 37.24 82.7489 37.144C82.9622 37.0373 83.1275 36.92 83.2449 36.792C83.3622 36.6533 83.4422 36.5307 83.4849 36.424C83.5275 36.3173 83.5489 36.264 83.5489 36.264H85.7889C85.7889 36.264 85.7622 36.3653 85.7089 36.568C85.6662 36.76 85.5702 37 85.4209 37.288C85.2715 37.576 85.0529 37.864 84.7649 38.152C84.4875 38.44 84.1195 38.68 83.6609 38.872C83.2022 39.064 82.6315 39.16 81.9489 39.16ZM80.0609 33.928H83.5329C83.5009 33.3413 83.3249 32.904 83.0049 32.616C82.6849 32.328 82.2902 32.184 81.8209 32.184C81.3515 32.184 80.9515 32.3387 80.6209 32.648C80.2902 32.9467 80.1035 33.3733 80.0609 33.928ZM91.8414 39.16C91.0947 39.16 90.444 39.0373 89.8894 38.792C89.3347 38.536 88.876 38.2 88.5134 37.784C88.1507 37.368 87.8787 36.8987 87.6974 36.376C87.516 35.8427 87.4254 35.304 87.4254 34.76C87.4254 34.216 87.516 33.6827 87.6974 33.16C87.8787 32.6373 88.1507 32.168 88.5134 31.752C88.876 31.3253 89.3347 30.9893 89.8894 30.744C90.444 30.488 91.0947 30.36 91.8414 30.36C92.5987 30.36 93.2227 30.472 93.7134 30.696C94.204 30.9093 94.5934 31.1813 94.8814 31.512C95.18 31.832 95.3987 32.1573 95.5374 32.488C95.676 32.808 95.7614 33.08 95.7934 33.304C95.836 33.5173 95.8574 33.624 95.8574 33.624H93.5854C93.5854 33.624 93.564 33.56 93.5214 33.432C93.4894 33.2933 93.4147 33.1387 93.2974 32.968C93.1907 32.7867 93.0254 32.632 92.8014 32.504C92.5774 32.3653 92.2787 32.296 91.9054 32.296C91.4467 32.296 91.0627 32.4133 90.7534 32.648C90.4547 32.872 90.2307 33.1707 90.0814 33.544C89.932 33.9173 89.8574 34.3227 89.8574 34.76C89.8574 35.1973 89.932 35.6027 90.0814 35.976C90.2307 36.3493 90.4547 36.6533 90.7534 36.888C91.0627 37.112 91.4467 37.224 91.9054 37.224C92.2787 37.224 92.5774 37.16 92.8014 37.032C93.0254 36.8933 93.1907 36.7387 93.2974 36.568C93.4147 36.3867 93.4894 36.232 93.5214 36.104C93.564 35.9653 93.5854 35.896 93.5854 35.896H95.8574C95.8574 35.896 95.836 36.008 95.7934 36.232C95.7614 36.4453 95.676 36.7173 95.5374 37.048C95.3987 37.368 95.18 37.6933 94.8814 38.024C94.5934 38.344 94.204 38.616 93.7134 38.84C93.2227 39.0533 92.5987 39.16 91.8414 39.16ZM100.24 39.16C99.6425 39.16 99.1465 39.032 98.7519 38.776C98.3679 38.52 98.0799 38.1787 97.8879 37.752C97.6959 37.3147 97.5999 36.824 97.5999 36.28V30.52H100.016V35.8C100.016 36.2053 100.123 36.536 100.336 36.792C100.549 37.0373 100.864 37.16 101.28 37.16C101.632 37.16 101.909 37.0747 102.112 36.904C102.325 36.7333 102.48 36.5147 102.576 36.248C102.672 35.9813 102.72 35.6987 102.72 35.4V30.52H105.152V39H102.72V37.8H102.624C102.443 38.1307 102.16 38.44 101.776 38.728C101.403 39.016 100.891 39.16 100.24 39.16ZM107.006 39V30.52H109.422V31.752H109.502C109.598 31.528 109.731 31.3093 109.902 31.096C110.073 30.8827 110.307 30.7067 110.606 30.568C110.905 30.4293 111.289 30.36 111.758 30.36C111.993 30.36 112.179 30.376 112.318 30.408C112.457 30.4293 112.526 30.44 112.526 30.44V32.84C112.526 32.84 112.446 32.824 112.286 32.792C112.137 32.76 111.939 32.744 111.694 32.744C110.937 32.744 110.371 32.952 109.998 33.368C109.625 33.7733 109.438 34.44 109.438 35.368V39H107.006ZM115.524 29.368C115.098 29.368 114.751 29.2347 114.484 28.968C114.218 28.6907 114.084 28.3653 114.084 27.992C114.084 27.5973 114.218 27.2667 114.484 27C114.751 26.7227 115.098 26.584 115.524 26.584C115.93 26.584 116.271 26.7227 116.548 27C116.826 27.2667 116.964 27.5973 116.964 27.992C116.964 28.3653 116.826 28.6907 116.548 28.968C116.271 29.2347 115.93 29.368 115.524 29.368ZM114.308 39V30.52H116.74V39H114.308ZM122.771 39.16C122.109 39.16 121.581 39.064 121.187 38.872C120.792 38.6693 120.493 38.4187 120.291 38.12C120.088 37.8107 119.955 37.4853 119.891 37.144C119.827 36.8027 119.795 36.488 119.795 36.2V32.456H118.355V30.52H119.795V28.424H122.227V30.52H124.035V32.456H122.227V36.136C122.227 36.488 122.317 36.76 122.499 36.952C122.691 37.144 123.005 37.24 123.443 37.24C123.635 37.24 123.811 37.224 123.971 37.192C124.131 37.16 124.211 37.144 124.211 37.144V39.016C124.211 39.016 124.067 39.0373 123.779 39.08C123.491 39.1333 123.155 39.16 122.771 39.16ZM126.46 42.12C126.172 42.12 125.942 42.1093 125.772 42.088C125.601 42.0667 125.516 42.056 125.516 42.056V40.104C125.516 40.104 125.585 40.1093 125.724 40.12C125.873 40.1307 126.054 40.136 126.268 40.136C126.78 40.136 127.201 40.0613 127.532 39.912C127.862 39.7733 128.15 39.496 128.396 39.08L125.26 30.52H127.692L129.66 36.264L131.58 30.52H134.028L130.988 38.664C130.71 39.4427 130.374 40.088 129.98 40.6C129.596 41.112 129.121 41.4907 128.556 41.736C127.99 41.992 127.292 42.12 126.46 42.12ZM145.246 42.12V37.912H145.118C145.075 37.9867 144.958 38.1253 144.766 38.328C144.585 38.5307 144.318 38.7227 143.966 38.904C143.614 39.0747 143.166 39.16 142.622 39.16C141.993 39.16 141.443 39.0373 140.974 38.792C140.515 38.536 140.131 38.2 139.822 37.784C139.513 37.3573 139.278 36.8827 139.118 36.36C138.969 35.8373 138.894 35.304 138.894 34.76C138.894 34.216 138.969 33.6827 139.118 33.16C139.278 32.6373 139.513 32.168 139.822 31.752C140.131 31.3253 140.515 30.9893 140.974 30.744C141.443 30.488 141.993 30.36 142.622 30.36C143.166 30.36 143.614 30.4507 143.966 30.632C144.318 30.8027 144.585 30.9893 144.766 31.192C144.958 31.3947 145.075 31.5333 145.118 31.608H145.246V30.52H147.678V42.12H145.246ZM143.326 37.192C143.763 37.192 144.126 37.0747 144.414 36.84C144.713 36.5947 144.931 36.2853 145.07 35.912C145.219 35.5387 145.294 35.1547 145.294 34.76C145.294 34.3653 145.219 33.9813 145.07 33.608C144.931 33.2347 144.713 32.9307 144.414 32.696C144.126 32.4507 143.763 32.328 143.326 32.328C142.889 32.328 142.521 32.4507 142.222 32.696C141.934 32.9307 141.715 33.2347 141.566 33.608C141.427 33.9813 141.358 34.3653 141.358 34.76C141.358 35.1547 141.427 35.5387 141.566 35.912C141.715 36.2853 141.934 36.5947 142.222 36.84C142.521 37.0747 142.889 37.192 143.326 37.192ZM152.334 39.16C151.736 39.16 151.24 39.032 150.846 38.776C150.462 38.52 150.174 38.1787 149.982 37.752C149.79 37.3147 149.694 36.824 149.694 36.28V30.52H152.11V35.8C152.11 36.2053 152.216 36.536 152.43 36.792C152.643 37.0373 152.958 37.16 153.374 37.16C153.726 37.16 154.003 37.0747 154.206 36.904C154.419 36.7333 154.574 36.5147 154.67 36.248C154.766 35.9813 154.814 35.6987 154.814 35.4V30.52H157.246V39H154.814V37.8H154.718C154.536 38.1307 154.254 38.44 153.87 38.728C153.496 39.016 152.984 39.16 152.334 39.16ZM163.324 39.16C162.577 39.16 161.932 39.0373 161.388 38.792C160.844 38.536 160.396 38.2 160.044 37.784C159.692 37.3573 159.425 36.8827 159.244 36.36C159.073 35.8373 158.988 35.2987 158.988 34.744C158.988 34.2107 159.068 33.688 159.228 33.176C159.399 32.6533 159.655 32.1787 159.996 31.752C160.348 31.3253 160.791 30.9893 161.324 30.744C161.868 30.488 162.508 30.36 163.244 30.36C164.023 30.36 164.711 30.5307 165.308 30.872C165.916 31.2133 166.391 31.72 166.732 32.392C167.073 33.0533 167.244 33.8587 167.244 34.808V35.4H161.436C161.468 35.912 161.644 36.3547 161.964 36.728C162.295 37.1013 162.748 37.288 163.324 37.288C163.655 37.288 163.921 37.24 164.124 37.144C164.337 37.0373 164.503 36.92 164.62 36.792C164.737 36.6533 164.817 36.5307 164.86 36.424C164.903 36.3173 164.924 36.264 164.924 36.264H167.164C167.164 36.264 167.137 36.3653 167.084 36.568C167.041 36.76 166.945 37 166.796 37.288C166.647 37.576 166.428 37.864 166.14 38.152C165.863 38.44 165.495 38.68 165.036 38.872C164.577 39.064 164.007 39.16 163.324 39.16ZM161.436 33.928H164.908C164.876 33.3413 164.7 32.904 164.38 32.616C164.06 32.328 163.665 32.184 163.196 32.184C162.727 32.184 162.327 32.3387 161.996 32.648C161.665 32.9467 161.479 33.3733 161.436 33.928ZM172.559 39.16C171.855 39.16 171.273 39.064 170.815 38.872C170.356 38.68 169.988 38.4453 169.711 38.168C169.444 37.88 169.241 37.5973 169.103 37.32C168.975 37.032 168.889 36.792 168.847 36.6C168.815 36.408 168.799 36.312 168.799 36.312H171.055C171.055 36.312 171.071 36.3653 171.103 36.472C171.135 36.5787 171.204 36.7013 171.311 36.84C171.428 36.9787 171.593 37.1013 171.807 37.208C172.02 37.3147 172.308 37.368 172.671 37.368C173.119 37.368 173.423 37.2773 173.583 37.096C173.753 36.9147 173.839 36.7333 173.839 36.552C173.839 36.168 173.524 35.912 172.895 35.784L171.743 35.56C171.252 35.464 170.788 35.3253 170.351 35.144C169.924 34.952 169.577 34.6907 169.311 34.36C169.055 34.0187 168.927 33.5813 168.927 33.048C168.927 32.536 169.06 32.0773 169.327 31.672C169.593 31.2667 169.972 30.9467 170.463 30.712C170.964 30.4773 171.561 30.36 172.255 30.36C172.905 30.36 173.444 30.4507 173.871 30.632C174.308 30.8027 174.655 31.0213 174.911 31.288C175.167 31.544 175.359 31.8053 175.487 32.072C175.615 32.328 175.695 32.5467 175.727 32.728C175.769 32.8987 175.791 32.984 175.791 32.984H173.615C173.615 32.984 173.583 32.9147 173.519 32.776C173.455 32.6267 173.321 32.4827 173.119 32.344C172.927 32.1947 172.628 32.12 172.223 32.12C171.807 32.12 171.519 32.2053 171.359 32.376C171.199 32.536 171.119 32.7067 171.119 32.888C171.119 33.1013 171.209 33.2613 171.391 33.368C171.583 33.4747 171.828 33.56 172.127 33.624L173.231 33.848C174.041 34.008 174.708 34.2907 175.231 34.696C175.753 35.0907 176.015 35.6667 176.015 36.424C176.015 36.936 175.881 37.4 175.615 37.816C175.348 38.232 174.959 38.5627 174.447 38.808C173.935 39.0427 173.305 39.16 172.559 39.16ZM181.38 39.16C180.719 39.16 180.191 39.064 179.796 38.872C179.401 38.6693 179.103 38.4187 178.9 38.12C178.697 37.8107 178.564 37.4853 178.5 37.144C178.436 36.8027 178.404 36.488 178.404 36.2V32.456H176.964V30.52H178.404V28.424H180.836V30.52H182.644V32.456H180.836V36.136C180.836 36.488 180.927 36.76 181.108 36.952C181.3 37.144 181.615 37.24 182.052 37.24C182.244 37.24 182.42 37.224 182.58 37.192C182.74 37.16 182.82 37.144 182.82 37.144V39.016C182.82 39.016 182.676 39.0373 182.388 39.08C182.1 39.1333 181.764 39.16 181.38 39.16ZM185.884 29.368C185.457 29.368 185.11 29.2347 184.844 28.968C184.577 28.6907 184.444 28.3653 184.444 27.992C184.444 27.5973 184.577 27.2667 184.844 27C185.11 26.7227 185.457 26.584 185.884 26.584C186.289 26.584 186.63 26.7227 186.908 27C187.185 27.2667 187.324 27.5973 187.324 27.992C187.324 28.3653 187.185 28.6907 186.908 28.968C186.63 29.2347 186.289 29.368 185.884 29.368ZM184.668 39V30.52H187.1V39H184.668ZM193.514 39.16C192.565 39.16 191.759 38.9573 191.098 38.552C190.437 38.136 189.93 37.5973 189.578 36.936C189.237 36.264 189.066 35.5387 189.066 34.76C189.066 33.9813 189.237 33.2613 189.578 32.6C189.93 31.928 190.437 31.3893 191.098 30.984C191.759 30.568 192.565 30.36 193.514 30.36C194.463 30.36 195.269 30.568 195.93 30.984C196.591 31.3893 197.093 31.928 197.434 32.6C197.786 33.2613 197.962 33.9813 197.962 34.76C197.962 35.5387 197.786 36.264 197.434 36.936C197.093 37.5973 196.591 38.136 195.93 38.552C195.269 38.9573 194.463 39.16 193.514 39.16ZM193.514 37.176C193.941 37.176 194.298 37.064 194.586 36.84C194.885 36.616 195.114 36.3227 195.274 35.96C195.434 35.5867 195.514 35.1867 195.514 34.76C195.514 34.3227 195.434 33.9227 195.274 33.56C195.114 33.1973 194.885 32.904 194.586 32.68C194.298 32.456 193.941 32.344 193.514 32.344C193.087 32.344 192.725 32.456 192.426 32.68C192.127 32.904 191.898 33.1973 191.738 33.56C191.589 33.9227 191.514 34.3227 191.514 34.76C191.514 35.1867 191.589 35.5867 191.738 35.96C191.898 36.3227 192.127 36.616 192.426 36.84C192.725 37.064 193.087 37.176 193.514 37.176ZM199.616 39V30.52H202.048V31.736H202.128C202.224 31.5653 202.362 31.3733 202.544 31.16C202.736 30.9467 202.986 30.76 203.296 30.6C203.616 30.44 204.021 30.36 204.512 30.36C205.173 30.36 205.712 30.5147 206.128 30.824C206.544 31.1227 206.848 31.512 207.04 31.992C207.232 32.4613 207.328 32.9573 207.328 33.48V39H204.896V33.896C204.896 33.4907 204.784 33.1333 204.56 32.824C204.346 32.5147 204 32.36 203.52 32.36C203.157 32.36 202.869 32.4453 202.656 32.616C202.442 32.7867 202.288 33.0053 202.192 33.272C202.096 33.5387 202.048 33.8213 202.048 34.12V39H199.616ZM216.818 39.16C216.156 39.16 215.628 39.064 215.234 38.872C214.839 38.6693 214.54 38.4187 214.338 38.12C214.135 37.8107 214.002 37.4853 213.938 37.144C213.874 36.8027 213.842 36.488 213.842 36.2V32.456H212.402V30.52H213.842V28.424H216.274V30.52H218.082V32.456H216.274V36.136C216.274 36.488 216.364 36.76 216.546 36.952C216.738 37.144 217.052 37.24 217.49 37.24C217.682 37.24 217.858 37.224 218.018 37.192C218.178 37.16 218.258 37.144 218.258 37.144V39.016C218.258 39.016 218.114 39.0373 217.826 39.08C217.538 39.1333 217.202 39.16 216.818 39.16ZM224.092 39.16C223.143 39.16 222.337 38.9573 221.676 38.552C221.015 38.136 220.508 37.5973 220.156 36.936C219.815 36.264 219.644 35.5387 219.644 34.76C219.644 33.9813 219.815 33.2613 220.156 32.6C220.508 31.928 221.015 31.3893 221.676 30.984C222.337 30.568 223.143 30.36 224.092 30.36C225.041 30.36 225.847 30.568 226.508 30.984C227.169 31.3893 227.671 31.928 228.012 32.6C228.364 33.2613 228.54 33.9813 228.54 34.76C228.54 35.5387 228.364 36.264 228.012 36.936C227.671 37.5973 227.169 38.136 226.508 38.552C225.847 38.9573 225.041 39.16 224.092 39.16ZM224.092 37.176C224.519 37.176 224.876 37.064 225.164 36.84C225.463 36.616 225.692 36.3227 225.852 35.96C226.012 35.5867 226.092 35.1867 226.092 34.76C226.092 34.3227 226.012 33.9227 225.852 33.56C225.692 33.1973 225.463 32.904 225.164 32.68C224.876 32.456 224.519 32.344 224.092 32.344C223.665 32.344 223.303 32.456 223.004 32.68C222.705 32.904 222.476 33.1973 222.316 33.56C222.167 33.9227 222.092 34.3227 222.092 34.76C222.092 35.1867 222.167 35.5867 222.316 35.96C222.476 36.3227 222.705 36.616 223.004 36.84C223.303 37.064 223.665 37.176 224.092 37.176ZM20.568 59.16C19.9707 59.16 19.4747 59.032 19.08 58.776C18.696 58.52 18.408 58.1787 18.216 57.752C18.024 57.3147 17.928 56.824 17.928 56.28V50.52H20.344V55.8C20.344 56.2053 20.4507 56.536 20.664 56.792C20.8773 57.0373 21.192 57.16 21.608 57.16C21.96 57.16 22.2373 57.0747 22.44 56.904C22.6533 56.7333 22.808 56.5147 22.904 56.248C23 55.9813 23.048 55.6987 23.048 55.4V50.52H25.48V59H23.048V57.8H22.952C22.7707 58.1307 22.488 58.44 22.104 58.728C21.7307 59.016 21.2187 59.16 20.568 59.16ZM30.9023 59.16C30.1983 59.16 29.6169 59.064 29.1583 58.872C28.6996 58.68 28.3316 58.4453 28.0543 58.168C27.7876 57.88 27.5849 57.5973 27.4463 57.32C27.3183 57.032 27.2329 56.792 27.1903 56.6C27.1583 56.408 27.1423 56.312 27.1423 56.312H29.3983C29.3983 56.312 29.4143 56.3653 29.4463 56.472C29.4783 56.5787 29.5476 56.7013 29.6543 56.84C29.7716 56.9787 29.9369 57.1013 30.1503 57.208C30.3636 57.3147 30.6516 57.368 31.0143 57.368C31.4623 57.368 31.7663 57.2773 31.9263 57.096C32.0969 56.9147 32.1823 56.7333 32.1823 56.552C32.1823 56.168 31.8676 55.912 31.2383 55.784L30.0863 55.56C29.5956 55.464 29.1316 55.3253 28.6943 55.144C28.2676 54.952 27.9209 54.6907 27.6543 54.36C27.3983 54.0187 27.2703 53.5813 27.2703 53.048C27.2703 52.536 27.4036 52.0773 27.6703 51.672C27.9369 51.2667 28.3156 50.9467 28.8063 50.712C29.3076 50.4773 29.9049 50.36 30.5983 50.36C31.2489 50.36 31.7876 50.4507 32.2143 50.632C32.6516 50.8027 32.9983 51.0213 33.2543 51.288C33.5103 51.544 33.7023 51.8053 33.8303 52.072C33.9583 52.328 34.0383 52.5467 34.0703 52.728C34.1129 52.8987 34.1343 52.984 34.1343 52.984H31.9583C31.9583 52.984 31.9263 52.9147 31.8623 52.776C31.7983 52.6267 31.6649 52.4827 31.4623 52.344C31.2703 52.1947 30.9716 52.12 30.5663 52.12C30.1503 52.12 29.8623 52.2053 29.7023 52.376C29.5423 52.536 29.4623 52.7067 29.4623 52.888C29.4623 53.1013 29.5529 53.2613 29.7343 53.368C29.9263 53.4747 30.1716 53.56 30.4703 53.624L31.5743 53.848C32.3849 54.008 33.0516 54.2907 33.5743 54.696C34.0969 55.0907 34.3583 55.6667 34.3583 56.424C34.3583 56.936 34.2249 57.4 33.9583 57.816C33.6916 58.232 33.3023 58.5627 32.7903 58.808C32.2783 59.0427 31.6489 59.16 30.9023 59.16ZM40.0895 59.16C39.3428 59.16 38.6975 59.0373 38.1535 58.792C37.6095 58.536 37.1615 58.2 36.8095 57.784C36.4575 57.3573 36.1908 56.8827 36.0095 56.36C35.8388 55.8373 35.7535 55.2987 35.7535 54.744C35.7535 54.2107 35.8335 53.688 35.9935 53.176C36.1642 52.6533 36.4202 52.1787 36.7615 51.752C37.1135 51.3253 37.5562 50.9893 38.0895 50.744C38.6335 50.488 39.2735 50.36 40.0095 50.36C40.7882 50.36 41.4762 50.5307 42.0735 50.872C42.6815 51.2133 43.1562 51.72 43.4975 52.392C43.8388 53.0533 44.0095 53.8587 44.0095 54.808V55.4H38.2015C38.2335 55.912 38.4095 56.3547 38.7295 56.728C39.0602 57.1013 39.5135 57.288 40.0895 57.288C40.4202 57.288 40.6868 57.24 40.8895 57.144C41.1028 57.0373 41.2682 56.92 41.3855 56.792C41.5028 56.6533 41.5828 56.5307 41.6255 56.424C41.6682 56.3173 41.6895 56.264 41.6895 56.264H43.9295C43.9295 56.264 43.9028 56.3653 43.8495 56.568C43.8068 56.76 43.7108 57 43.5615 57.288C43.4122 57.576 43.1935 57.864 42.9055 58.152C42.6282 58.44 42.2602 58.68 41.8015 58.872C41.3428 59.064 40.7722 59.16 40.0895 59.16ZM38.2015 53.928H41.6735C41.6415 53.3413 41.4655 52.904 41.1455 52.616C40.8255 52.328 40.4308 52.184 39.9615 52.184C39.4922 52.184 39.0922 52.3387 38.7615 52.648C38.4308 52.9467 38.2442 53.3733 38.2015 53.928ZM50.1316 62.12C49.8436 62.12 49.6143 62.1093 49.4436 62.088C49.273 62.0667 49.1876 62.056 49.1876 62.056V60.104C49.1876 60.104 49.257 60.1093 49.3956 60.12C49.545 60.1307 49.7263 60.136 49.9396 60.136C50.4516 60.136 50.873 60.0613 51.2036 59.912C51.5343 59.7733 51.8223 59.496 52.0676 59.08L48.9316 50.52H51.3636L53.3316 56.264L55.2516 50.52H57.6996L54.6596 58.664C54.3823 59.4427 54.0463 60.088 53.6516 60.6C53.2676 61.112 52.793 61.4907 52.2276 61.736C51.6623 61.992 50.9636 62.12 50.1316 62.12ZM62.8109 59.16C61.8615 59.16 61.0562 58.9573 60.3949 58.552C59.7335 58.136 59.2269 57.5973 58.8749 56.936C58.5335 56.264 58.3629 55.5387 58.3629 54.76C58.3629 53.9813 58.5335 53.2613 58.8749 52.6C59.2269 51.928 59.7335 51.3893 60.3949 50.984C61.0562 50.568 61.8615 50.36 62.8109 50.36C63.7602 50.36 64.5655 50.568 65.2269 50.984C65.8882 51.3893 66.3895 51.928 66.7309 52.6C67.0829 53.2613 67.2589 53.9813 67.2589 54.76C67.2589 55.5387 67.0829 56.264 66.7309 56.936C66.3895 57.5973 65.8882 58.136 65.2269 58.552C64.5655 58.9573 63.7602 59.16 62.8109 59.16ZM62.8109 57.176C63.2375 57.176 63.5949 57.064 63.8829 56.84C64.1815 56.616 64.4109 56.3227 64.5709 55.96C64.7309 55.5867 64.8109 55.1867 64.8109 54.76C64.8109 54.3227 64.7309 53.9227 64.5709 53.56C64.4109 53.1973 64.1815 52.904 63.8829 52.68C63.5949 52.456 63.2375 52.344 62.8109 52.344C62.3842 52.344 62.0215 52.456 61.7229 52.68C61.4242 52.904 61.1949 53.1973 61.0349 53.56C60.8855 53.9227 60.8109 54.3227 60.8109 54.76C60.8109 55.1867 60.8855 55.5867 61.0349 55.96C61.1949 56.3227 61.4242 56.616 61.7229 56.84C62.0215 57.064 62.3842 57.176 62.8109 57.176ZM71.6461 59.16C71.0488 59.16 70.5528 59.032 70.1581 58.776C69.7741 58.52 69.4861 58.1787 69.2941 57.752C69.1021 57.3147 69.0061 56.824 69.0061 56.28V50.52H71.4221V55.8C71.4221 56.2053 71.5288 56.536 71.7421 56.792C71.9555 57.0373 72.2701 57.16 72.6861 57.16C73.0381 57.16 73.3155 57.0747 73.5181 56.904C73.7315 56.7333 73.8861 56.5147 73.9821 56.248C74.0781 55.9813 74.1261 55.6987 74.1261 55.4V50.52H76.5581V59H74.1261V57.8H74.0301C73.8488 58.1307 73.5661 58.44 73.1821 58.728C72.8088 59.016 72.2968 59.16 71.6461 59.16ZM78.4124 59V50.52H80.8284V51.752H80.9084C81.0044 51.528 81.1377 51.3093 81.3084 51.096C81.479 50.8827 81.7137 50.7067 82.0124 50.568C82.311 50.4293 82.695 50.36 83.1644 50.36C83.399 50.36 83.5857 50.376 83.7244 50.408C83.863 50.4293 83.9324 50.44 83.9324 50.44V52.84C83.9324 52.84 83.8524 52.824 83.6924 52.792C83.543 52.76 83.3457 52.744 83.1004 52.744C82.343 52.744 81.7777 52.952 81.4044 53.368C81.031 53.7733 80.8444 54.44 80.8444 55.368V59H78.4124ZM93.2633 59.16C92.5166 59.16 91.8659 59.0373 91.3113 58.792C90.7566 58.536 90.2979 58.2 89.9353 57.784C89.5726 57.368 89.3006 56.8987 89.1193 56.376C88.9379 55.8427 88.8473 55.304 88.8473 54.76C88.8473 54.216 88.9379 53.6827 89.1193 53.16C89.3006 52.6373 89.5726 52.168 89.9353 51.752C90.2979 51.3253 90.7566 50.9893 91.3113 50.744C91.8659 50.488 92.5166 50.36 93.2633 50.36C94.0206 50.36 94.6446 50.472 95.1353 50.696C95.6259 50.9093 96.0153 51.1813 96.3033 51.512C96.6019 51.832 96.8206 52.1573 96.9593 52.488C97.0979 52.808 97.1833 53.08 97.2153 53.304C97.2579 53.5173 97.2793 53.624 97.2793 53.624H95.0073C95.0073 53.624 94.9859 53.56 94.9433 53.432C94.9113 53.2933 94.8366 53.1387 94.7193 52.968C94.6126 52.7867 94.4473 52.632 94.2233 52.504C93.9993 52.3653 93.7006 52.296 93.3273 52.296C92.8686 52.296 92.4846 52.4133 92.1753 52.648C91.8766 52.872 91.6526 53.1707 91.5033 53.544C91.3539 53.9173 91.2793 54.3227 91.2793 54.76C91.2793 55.1973 91.3539 55.6027 91.5033 55.976C91.6526 56.3493 91.8766 56.6533 92.1753 56.888C92.4846 57.112 92.8686 57.224 93.3273 57.224C93.7006 57.224 93.9993 57.16 94.2233 57.032C94.4473 56.8933 94.6126 56.7387 94.7193 56.568C94.8366 56.3867 94.9113 56.232 94.9433 56.104C94.9859 55.9653 95.0073 55.896 95.0073 55.896H97.2793C97.2793 55.896 97.2579 56.008 97.2153 56.232C97.1833 56.4453 97.0979 56.7173 96.9593 57.048C96.8206 57.368 96.6019 57.6933 96.3033 58.024C96.0153 58.344 95.6259 58.616 95.1353 58.84C94.6446 59.0533 94.0206 59.16 93.2633 59.16ZM102.544 50.36C103.088 50.36 103.536 50.4507 103.888 50.632C104.24 50.8027 104.507 50.9893 104.688 51.192C104.88 51.3947 104.997 51.5333 105.04 51.608H105.168V50.52H107.6V59H105.168V57.912H105.04C104.997 57.9867 104.88 58.1253 104.688 58.328C104.507 58.5307 104.24 58.7227 103.888 58.904C103.536 59.0747 103.088 59.16 102.544 59.16C101.915 59.16 101.365 59.0373 100.896 58.792C100.437 58.536 100.053 58.2 99.744 57.784C99.4347 57.3573 99.2 56.8827 99.04 56.36C98.8907 55.8373 98.816 55.304 98.816 54.76C98.816 54.216 98.8907 53.6827 99.04 53.16C99.2 52.6373 99.4347 52.168 99.744 51.752C100.053 51.3253 100.437 50.9893 100.896 50.744C101.365 50.488 101.915 50.36 102.544 50.36ZM103.248 52.328C102.811 52.328 102.443 52.4507 102.144 52.696C101.856 52.9307 101.637 53.2347 101.488 53.608C101.349 53.9813 101.28 54.3653 101.28 54.76C101.28 55.1547 101.349 55.5387 101.488 55.912C101.637 56.2853 101.856 56.5947 102.144 56.84C102.443 57.0747 102.811 57.192 103.248 57.192C103.685 57.192 104.048 57.0747 104.336 56.84C104.635 56.5947 104.853 56.2853 104.992 55.912C105.141 55.5387 105.216 55.1547 105.216 54.76C105.216 54.3653 105.141 53.9813 104.992 53.608C104.853 53.2347 104.635 52.9307 104.336 52.696C104.048 52.4507 103.685 52.328 103.248 52.328ZM109.459 59V50.52H111.875V51.752H111.955C112.051 51.528 112.185 51.3093 112.355 51.096C112.526 50.8827 112.761 50.7067 113.059 50.568C113.358 50.4293 113.742 50.36 114.211 50.36C114.446 50.36 114.633 50.376 114.771 50.408C114.91 50.4293 114.979 50.44 114.979 50.44V52.84C114.979 52.84 114.899 52.824 114.739 52.792C114.59 52.76 114.393 52.744 114.147 52.744C113.39 52.744 112.825 52.952 112.451 53.368C112.078 53.7733 111.891 54.44 111.891 55.368V59H109.459ZM119.575 59.16C118.946 59.16 118.397 59.0373 117.927 58.792C117.469 58.536 117.085 58.2 116.775 57.784C116.466 57.3573 116.231 56.8827 116.071 56.36C115.922 55.8373 115.847 55.304 115.847 54.76C115.847 54.216 115.922 53.6827 116.071 53.16C116.231 52.6373 116.466 52.168 116.775 51.752C117.085 51.3253 117.469 50.9893 117.927 50.744C118.397 50.488 118.946 50.36 119.575 50.36C120.119 50.36 120.567 50.4507 120.919 50.632C121.271 50.8027 121.538 50.9893 121.719 51.192C121.911 51.3947 122.029 51.5333 122.071 51.608H122.199V46.84H124.631V59H122.199V57.912H122.071C122.029 57.9867 121.911 58.1253 121.719 58.328C121.538 58.5307 121.271 58.7227 120.919 58.904C120.567 59.0747 120.119 59.16 119.575 59.16ZM120.279 57.192C120.717 57.192 121.079 57.0747 121.367 56.84C121.666 56.5947 121.885 56.2853 122.023 55.912C122.173 55.5387 122.247 55.1547 122.247 54.76C122.247 54.3653 122.173 53.9813 122.023 53.608C121.885 53.2347 121.666 52.9307 121.367 52.696C121.079 52.4507 120.717 52.328 120.279 52.328C119.842 52.328 119.474 52.4507 119.175 52.696C118.887 52.9307 118.669 53.2347 118.519 53.608C118.381 53.9813 118.311 54.3653 118.311 54.76C118.311 55.1547 118.381 55.5387 118.519 55.912C118.669 56.2853 118.887 56.5947 119.175 56.84C119.474 57.0747 119.842 57.192 120.279 57.192ZM134.67 59.16C133.721 59.16 132.916 58.9573 132.254 58.552C131.593 58.136 131.086 57.5973 130.734 56.936C130.393 56.264 130.222 55.5387 130.222 54.76C130.222 53.9813 130.393 53.2613 130.734 52.6C131.086 51.928 131.593 51.3893 132.254 50.984C132.916 50.568 133.721 50.36 134.67 50.36C135.62 50.36 136.425 50.568 137.086 50.984C137.748 51.3893 138.249 51.928 138.59 52.6C138.942 53.2613 139.118 53.9813 139.118 54.76C139.118 55.5387 138.942 56.264 138.59 56.936C138.249 57.5973 137.748 58.136 137.086 58.552C136.425 58.9573 135.62 59.16 134.67 59.16ZM134.67 57.176C135.097 57.176 135.454 57.064 135.742 56.84C136.041 56.616 136.27 56.3227 136.43 55.96C136.59 55.5867 136.67 55.1867 136.67 54.76C136.67 54.3227 136.59 53.9227 136.43 53.56C136.27 53.1973 136.041 52.904 135.742 52.68C135.454 52.456 135.097 52.344 134.67 52.344C134.244 52.344 133.881 52.456 133.582 52.68C133.284 52.904 133.054 53.1973 132.894 53.56C132.745 53.9227 132.67 54.3227 132.67 54.76C132.67 55.1867 132.745 55.5867 132.894 55.96C133.054 56.3227 133.284 56.616 133.582 56.84C133.881 57.064 134.244 57.176 134.67 57.176ZM140.772 59V50.52H143.204V51.736H143.284C143.38 51.5653 143.518 51.3733 143.7 51.16C143.892 50.9467 144.142 50.76 144.452 50.6C144.772 50.44 145.177 50.36 145.668 50.36C146.329 50.36 146.868 50.5147 147.284 50.824C147.7 51.1227 148.004 51.512 148.196 51.992C148.388 52.4613 148.484 52.9573 148.484 53.48V59H146.052V53.896C146.052 53.4907 145.94 53.1333 145.716 52.824C145.502 52.5147 145.156 52.36 144.676 52.36C144.313 52.36 144.025 52.4453 143.812 52.616C143.598 52.7867 143.444 53.0053 143.348 53.272C143.252 53.5387 143.204 53.8213 143.204 54.12V59H140.772ZM150.494 59V46.84H152.926V59H150.494ZM156.384 49.368C155.957 49.368 155.61 49.2347 155.344 48.968C155.077 48.6907 154.944 48.3653 154.944 47.992C154.944 47.5973 155.077 47.2667 155.344 47C155.61 46.7227 155.957 46.584 156.384 46.584C156.789 46.584 157.13 46.7227 157.408 47C157.685 47.2667 157.824 47.5973 157.824 47.992C157.824 48.3653 157.685 48.6907 157.408 48.968C157.13 49.2347 156.789 49.368 156.384 49.368ZM155.168 59V50.52H157.6V59H155.168ZM159.678 59V50.52H162.11V51.736H162.19C162.286 51.5653 162.425 51.3733 162.606 51.16C162.798 50.9467 163.049 50.76 163.358 50.6C163.678 50.44 164.083 50.36 164.574 50.36C165.235 50.36 165.774 50.5147 166.19 50.824C166.606 51.1227 166.91 51.512 167.102 51.992C167.294 52.4613 167.39 52.9573 167.39 53.48V59H164.958V53.896C164.958 53.4907 164.846 53.1333 164.622 52.824C164.409 52.5147 164.062 52.36 163.582 52.36C163.219 52.36 162.931 52.4453 162.718 52.616C162.505 52.7867 162.35 53.0053 162.254 53.272C162.158 53.5387 162.11 53.8213 162.11 54.12V59H159.678ZM173.371 59.16C172.624 59.16 171.979 59.0373 171.435 58.792C170.891 58.536 170.443 58.2 170.091 57.784C169.739 57.3573 169.472 56.8827 169.291 56.36C169.12 55.8373 169.035 55.2987 169.035 54.744C169.035 54.2107 169.115 53.688 169.275 53.176C169.445 52.6533 169.701 52.1787 170.043 51.752C170.395 51.3253 170.837 50.9893 171.371 50.744C171.915 50.488 172.555 50.36 173.291 50.36C174.069 50.36 174.757 50.5307 175.355 50.872C175.963 51.2133 176.437 51.72 176.779 52.392C177.12 53.0533 177.291 53.8587 177.291 54.808V55.4H171.483C171.515 55.912 171.691 56.3547 172.011 56.728C172.341 57.1013 172.795 57.288 173.371 57.288C173.701 57.288 173.968 57.24 174.171 57.144C174.384 57.0373 174.549 56.92 174.667 56.792C174.784 56.6533 174.864 56.5307 174.907 56.424C174.949 56.3173 174.971 56.264 174.971 56.264H177.211C177.211 56.264 177.184 56.3653 177.131 56.568C177.088 56.76 176.992 57 176.843 57.288C176.693 57.576 176.475 57.864 176.187 58.152C175.909 58.44 175.541 58.68 175.083 58.872C174.624 59.064 174.053 59.16 173.371 59.16ZM171.483 53.928H174.955C174.923 53.3413 174.747 52.904 174.427 52.616C174.107 52.328 173.712 52.184 173.243 52.184C172.773 52.184 172.373 52.3387 172.043 52.648C171.712 52.9467 171.525 53.3733 171.483 53.928Z" fill="white"/>
<g filter="url(#filter0_d_27829_62897)">
<rect x="17" y="74" width="102" height="25" rx="12.5" fill="white" shape-rendering="crispEdges"/>
<path d="M40.64 90.1C40.0733 90.1 39.5733 89.9933 39.14 89.78C38.7067 89.56 38.3667 89.2433 38.12 88.83C37.88 88.41 37.76 87.8967 37.76 87.29V82.6H38.93V87.29C38.93 87.77 39.07 88.1767 39.35 88.51C39.63 88.8367 40.06 89 40.64 89C41.2267 89 41.66 88.8367 41.94 88.51C42.22 88.1767 42.36 87.77 42.36 87.29V82.6H43.53V87.29C43.53 87.8967 43.4067 88.41 43.16 88.83C42.92 89.2433 42.58 89.56 42.14 89.78C41.7067 89.9933 41.2067 90.1 40.64 90.1ZM45.0452 91.96V84.7H46.1852V85.49H46.2452C46.3118 85.39 46.4085 85.27 46.5352 85.13C46.6685 84.99 46.8452 84.8667 47.0652 84.76C47.2918 84.6533 47.5752 84.6 47.9152 84.6C48.3085 84.6 48.6552 84.68 48.9552 84.84C49.2552 84.9933 49.5018 85.2033 49.6952 85.47C49.8952 85.73 50.0418 86.0233 50.1352 86.35C50.2352 86.6767 50.2852 87.01 50.2852 87.35C50.2852 87.69 50.2352 88.0233 50.1352 88.35C50.0418 88.6767 49.8952 88.9733 49.6952 89.24C49.5018 89.5 49.2552 89.71 48.9552 89.87C48.6552 90.0233 48.3085 90.1 47.9152 90.1C47.5752 90.1 47.2918 90.0467 47.0652 89.94C46.8452 89.8333 46.6685 89.71 46.5352 89.57C46.4085 89.43 46.3118 89.31 46.2452 89.21H46.1852V91.96H45.0452ZM46.1852 87.35C46.1852 87.65 46.2385 87.9367 46.3452 88.21C46.4585 88.4833 46.6218 88.71 46.8352 88.89C47.0552 89.0633 47.3285 89.15 47.6552 89.15C47.9885 89.15 48.2618 89.0633 48.4752 88.89C48.6952 88.71 48.8585 88.4833 48.9652 88.21C49.0785 87.9367 49.1352 87.65 49.1352 87.35C49.1352 87.05 49.0785 86.7633 48.9652 86.49C48.8585 86.2167 48.6952 85.9933 48.4752 85.82C48.2618 85.64 47.9885 85.55 47.6552 85.55C47.3285 85.55 47.0552 85.64 46.8352 85.82C46.6218 85.9933 46.4585 86.2167 46.3452 86.49C46.2385 86.7633 46.1852 87.05 46.1852 87.35ZM53.7586 90.1C53.3586 90.1 53.0086 90.0233 52.7086 89.87C52.4153 89.71 52.1686 89.5 51.9686 89.24C51.7686 88.9733 51.6186 88.6767 51.5186 88.35C51.4253 88.0233 51.3786 87.69 51.3786 87.35C51.3786 87.01 51.4253 86.6767 51.5186 86.35C51.6186 86.0233 51.7686 85.73 51.9686 85.47C52.1686 85.2033 52.4153 84.9933 52.7086 84.84C53.0086 84.68 53.3586 84.6 53.7586 84.6C54.0919 84.6 54.3686 84.6533 54.5886 84.76C54.8153 84.8667 54.9953 84.99 55.1286 85.13C55.2619 85.27 55.3586 85.39 55.4186 85.49H55.4786V82.4H56.6186V90H55.4786V89.21H55.4186C55.3586 89.31 55.2619 89.43 55.1286 89.57C54.9953 89.71 54.8153 89.8333 54.5886 89.94C54.3686 90.0467 54.0919 90.1 53.7586 90.1ZM54.0086 89.15C54.3353 89.15 54.6053 89.0633 54.8186 88.89C55.0386 88.71 55.2019 88.4833 55.3086 88.21C55.4219 87.9367 55.4786 87.65 55.4786 87.35C55.4786 87.05 55.4219 86.7633 55.3086 86.49C55.2019 86.2167 55.0386 85.9933 54.8186 85.82C54.6053 85.64 54.3353 85.55 54.0086 85.55C53.6819 85.55 53.4086 85.64 53.1886 85.82C52.9686 85.9933 52.8019 86.2167 52.6886 86.49C52.5819 86.7633 52.5286 87.05 52.5286 87.35C52.5286 87.65 52.5819 87.9367 52.6886 88.21C52.8019 88.4833 52.9686 88.71 53.1886 88.89C53.4086 89.0633 53.6819 89.15 54.0086 89.15ZM60.3113 84.6C60.6447 84.6 60.9213 84.6533 61.1413 84.76C61.368 84.8667 61.548 84.99 61.6813 85.13C61.8147 85.27 61.9113 85.39 61.9713 85.49H62.0313V84.7H63.1713V90H62.0313V89.21H61.9713C61.9113 89.31 61.8147 89.43 61.6813 89.57C61.548 89.71 61.368 89.8333 61.1413 89.94C60.9213 90.0467 60.6447 90.1 60.3113 90.1C59.9113 90.1 59.5613 90.0233 59.2613 89.87C58.968 89.71 58.7213 89.5 58.5213 89.24C58.3213 88.9733 58.1713 88.6767 58.0713 88.35C57.978 88.0233 57.9313 87.69 57.9313 87.35C57.9313 87.01 57.978 86.6767 58.0713 86.35C58.1713 86.0233 58.3213 85.73 58.5213 85.47C58.7213 85.2033 58.968 84.9933 59.2613 84.84C59.5613 84.68 59.9113 84.6 60.3113 84.6ZM60.5613 85.55C60.2347 85.55 59.9613 85.64 59.7413 85.82C59.5213 85.9933 59.3547 86.2167 59.2413 86.49C59.1347 86.7633 59.0813 87.05 59.0813 87.35C59.0813 87.65 59.1347 87.9367 59.2413 88.21C59.3547 88.4833 59.5213 88.71 59.7413 88.89C59.9613 89.0633 60.2347 89.15 60.5613 89.15C60.888 89.15 61.158 89.0633 61.3713 88.89C61.5913 88.71 61.7547 88.4833 61.8613 88.21C61.9747 87.9367 62.0313 87.65 62.0313 87.35C62.0313 87.05 61.9747 86.7633 61.8613 86.49C61.7547 86.2167 61.5913 85.9933 61.3713 85.82C61.158 85.64 60.888 85.55 60.5613 85.55ZM66.6597 90.1C66.2397 90.1 65.903 90.0233 65.6497 89.87C65.3964 89.7167 65.213 89.5133 65.0997 89.26C64.993 89 64.9397 88.72 64.9397 88.42V85.62H64.0097V84.7H64.9397V83.38H66.0797V84.7H67.3197V85.62H66.0797V88.4C66.0797 88.9 66.3564 89.15 66.9097 89.15C67.0497 89.15 67.1797 89.14 67.2997 89.12C67.4197 89.1 67.4797 89.09 67.4797 89.09V90.02C67.4797 90.02 67.3964 90.0333 67.2297 90.06C67.0697 90.0867 66.8797 90.1 66.6597 90.1ZM70.9801 90.1C70.5334 90.1 70.1467 90.0233 69.8201 89.87C69.5001 89.71 69.2334 89.5 69.0201 89.24C68.8134 88.9733 68.6567 88.6767 68.5501 88.35C68.4501 88.0233 68.4001 87.69 68.4001 87.35C68.4001 87.0167 68.4501 86.6867 68.5501 86.36C68.6501 86.0333 68.8034 85.7367 69.0101 85.47C69.2167 85.2033 69.4801 84.9933 69.8001 84.84C70.1201 84.68 70.4967 84.6 70.9301 84.6C71.3967 84.6 71.8067 84.7067 72.1601 84.92C72.5201 85.1267 72.8001 85.4367 73.0001 85.85C73.2067 86.2567 73.3101 86.7633 73.3101 87.37V87.68H69.5501C69.5767 88.0867 69.7134 88.4367 69.9601 88.73C70.2067 89.0233 70.5467 89.17 70.9801 89.17C71.2267 89.17 71.4301 89.13 71.5901 89.05C71.7501 88.9633 71.8734 88.8667 71.9601 88.76C72.0467 88.6533 72.1067 88.56 72.1401 88.48C72.1801 88.4 72.2001 88.36 72.2001 88.36H73.2601C73.2601 88.36 73.2434 88.42 73.2101 88.54C73.1767 88.6533 73.1134 88.7967 73.0201 88.97C72.9334 89.1433 72.8067 89.3167 72.6401 89.49C72.4734 89.6633 72.2534 89.81 71.9801 89.93C71.7067 90.0433 71.3734 90.1 70.9801 90.1ZM69.5601 86.88H72.2101C72.1834 86.4133 72.0434 86.07 71.7901 85.85C71.5434 85.63 71.2534 85.52 70.9201 85.52C70.5467 85.52 70.2367 85.6433 69.9901 85.89C69.7434 86.13 69.6001 86.46 69.5601 86.88ZM76.9495 90V82.6H78.0095L81.6395 87.92V82.6H82.8095V90H81.7395L78.1095 84.73V90H76.9495ZM86.7927 90.1C86.2127 90.1 85.7227 89.97 85.3227 89.71C84.9294 89.45 84.6294 89.11 84.4227 88.69C84.2227 88.27 84.1227 87.8233 84.1227 87.35C84.1227 86.8767 84.2227 86.43 84.4227 86.01C84.6294 85.59 84.9294 85.25 85.3227 84.99C85.7227 84.73 86.2127 84.6 86.7927 84.6C87.3661 84.6 87.8494 84.73 88.2427 84.99C88.6427 85.25 88.9427 85.59 89.1427 86.01C89.3494 86.43 89.4527 86.8767 89.4527 87.35C89.4527 87.8233 89.3494 88.27 89.1427 88.69C88.9427 89.11 88.6427 89.45 88.2427 89.71C87.8494 89.97 87.3661 90.1 86.7927 90.1ZM86.7927 89.13C87.1194 89.13 87.3927 89.0467 87.6127 88.88C87.8394 88.7133 88.0094 88.4933 88.1227 88.22C88.2427 87.9467 88.3027 87.6567 88.3027 87.35C88.3027 87.0367 88.2427 86.7467 88.1227 86.48C88.0094 86.2067 87.8394 85.9867 87.6127 85.82C87.3927 85.6533 87.1194 85.57 86.7927 85.57C86.4661 85.57 86.1894 85.6533 85.9627 85.82C85.7361 85.9867 85.5661 86.2067 85.4527 86.48C85.3394 86.7467 85.2827 87.0367 85.2827 87.35C85.2827 87.6567 85.3394 87.9467 85.4527 88.22C85.5661 88.4933 85.7361 88.7133 85.9627 88.88C86.1894 89.0467 86.4661 89.13 86.7927 89.13ZM91.8027 90L90.1127 84.7H91.2627L92.4227 88.53L93.6427 84.7H94.7027L95.9227 88.53L97.0827 84.7H98.2427L96.5427 90H95.3327L94.1727 86.36L93.0227 90H91.8027Z" fill="black"/>
</g>
<path d="M278.651 36.0948C265.447 46.2752 251.111 48.6054 244.146 49.1137C241.725 49.2913 239.856 51.4353 239.97 53.9601C241.996 98.6571 272.543 112.941 279.807 115.714C280.808 116.095 281.89 116.095 282.89 115.714C290.154 112.941 320.703 98.6571 322.727 53.9601C322.842 51.4353 320.973 49.2913 318.552 49.1137C311.588 48.6054 297.252 46.2752 284.047 36.0948C282.44 34.8556 280.258 34.8556 278.651 36.0948Z" fill="#F9AC4C"/>
<path d="M279.035 41.754C267.724 50.475 255.442 52.4719 249.475 52.9073C247.402 53.0581 245.801 54.8957 245.899 57.058C247.634 95.3484 273.803 107.585 280.026 109.962C280.882 110.289 281.81 110.289 282.667 109.962C288.89 107.585 315.06 95.3484 316.794 57.058C316.893 54.8957 315.291 53.0581 313.217 52.9073C307.251 52.4719 294.97 50.475 283.658 41.754C282.281 40.6923 280.412 40.6923 279.035 41.754Z" fill="white"/>
<path d="M279.178 43.8608C268.571 52.0394 257.054 53.9123 251.46 54.3209C249.514 54.462 248.013 56.1853 248.106 58.2126C249.732 94.1206 274.272 105.595 280.107 107.823C280.911 108.129 281.781 108.129 282.585 107.823C288.42 105.595 312.96 94.1206 314.588 58.2126C314.679 56.1853 313.178 54.462 311.232 54.3209C305.638 53.9123 294.121 52.0394 283.514 43.8608C282.222 42.866 280.47 42.866 279.178 43.8608Z" fill="#F9AC4C"/>
<path d="M282.586 107.823C288.421 105.595 312.961 94.1194 314.589 58.2126C314.68 56.1853 313.179 54.462 311.233 54.3209C305.639 53.9123 294.122 52.0394 283.515 43.8608C282.869 43.3634 282.108 43.1141 281.348 43.1141V108.053C281.766 108.053 282.184 107.976 282.586 107.823Z" fill="#F57D2A"/>
<path d="M323.905 37.4824L325.375 41.4482L329.341 42.9186L325.375 44.3889L323.905 48.3535L322.435 44.3889L318.469 42.9186L322.435 41.4482L323.905 37.4824Z" fill="white"/>
<path d="M242.268 104.227L243.739 108.193L247.704 109.663L243.739 111.134L242.268 115.1L240.798 111.134L236.832 109.663L240.798 108.193L242.268 104.227Z" fill="white"/>
<path d="M232.256 39.6938L233.136 42.069L235.511 42.9494L233.136 43.8299L232.256 46.2051L231.375 43.8299L229 42.9494L231.375 42.069L232.256 39.6938Z" fill="white"/>
<path d="M317.783 105.676L318.663 108.051L321.039 108.932L318.663 109.812L317.783 112.188L316.902 109.812L314.527 108.932L316.902 108.051L317.783 105.676Z" fill="white"/>
<g opacity="0.45">
<path d="M3.25323 -4.64238C-3.32595 -1.86598 -6.41948 5.74429 -3.64407 12.3224C-0.868663 18.9004 6.74261 21.9951 13.3218 19.2187C19.901 16.4423 22.9945 8.832 20.2181 2.25282C17.4417 -4.32636 9.83241 -7.41878 3.25323 -4.64238ZM12.8476 18.0949C6.88797 20.6094 -0.00458435 17.8068 -2.51815 11.8483C-5.03171 5.88977 -2.23005 -1.00389 3.72845 -3.51745C9.68694 -6.03101 16.5806 -3.22935 19.0942 2.72914C21.6077 8.68763 18.8051 15.5802 12.8476 18.0949Z" fill="white"/>
<path d="M2.6105 4.21353C2.29911 4.3449 2.15428 4.70221 2.28564 5.01361L3.72127 8.41737C3.85263 8.72876 4.20995 8.87359 4.52134 8.74223C4.83274 8.61087 4.97756 8.25355 4.8462 7.94216L3.41057 4.53839C3.2781 4.22799 2.92079 4.08317 2.6105 4.21353Z" fill="white"/>
<path d="M10.0441 1.07681C9.7327 1.20817 9.58788 1.56549 9.71924 1.87688L11.1549 5.28065C11.2862 5.59204 11.6435 5.73687 11.9549 5.60551C12.2663 5.47415 12.4112 5.11683 12.2798 4.80544L10.8442 1.40167C10.7138 1.09139 10.3555 0.945451 10.0441 1.07681Z" fill="white"/>
<path d="M11.787 9.15385C11.4751 9.02624 11.1185 9.17618 10.9919 9.48923L10.1208 11.633L7.97701 10.762C7.66506 10.6344 7.30844 10.7843 7.18183 11.0973C7.05521 11.4104 7.20416 11.7659 7.51721 11.8925L9.661 12.7636L8.78993 14.9074C8.66332 15.2204 8.81226 15.5759 9.12532 15.7026C9.28184 15.7659 9.44846 15.7603 9.59288 15.6987C9.73619 15.6381 9.85731 15.5216 9.92161 15.3662L10.7927 13.2224L12.9365 14.0935C13.093 14.1568 13.2596 14.1512 13.404 14.0896C13.5473 14.029 13.6685 13.9125 13.7327 13.7571C13.8594 13.444 13.7104 13.0885 13.3974 12.9619L11.2536 12.0908L12.1246 9.94705C12.25 9.63708 12.1001 9.28046 11.787 9.15385Z" fill="white"/>
</g>
<g opacity="0.45">
<path d="M187.126 107.107C181.967 105.086 176.127 107.638 174.106 112.795C172.085 117.952 174.637 123.794 179.795 125.815C184.954 127.836 190.794 125.284 192.815 120.126C194.836 114.967 192.284 109.128 187.126 107.107ZM180.14 124.934C175.468 123.103 173.157 117.813 174.988 113.142C176.819 108.47 182.109 106.158 186.78 107.989C191.452 109.82 193.764 115.11 191.933 119.781C190.102 124.453 184.812 126.764 180.14 124.934Z" fill="white"/>
<path d="M181.972 111.678C181.728 111.582 181.454 111.702 181.359 111.946L180.313 114.614C180.217 114.859 180.337 115.133 180.581 115.228C180.825 115.324 181.099 115.204 181.195 114.96L182.241 112.291C182.336 112.047 182.215 111.773 181.972 111.678Z" fill="white"/>
<path d="M187.801 113.963C187.556 113.867 187.283 113.987 187.187 114.231L186.141 116.9C186.045 117.144 186.165 117.418 186.409 117.513C186.653 117.609 186.927 117.489 187.023 117.245L188.069 114.577C188.165 114.334 188.045 114.058 187.801 113.963Z" fill="white"/>
<path d="M184.394 119.393C184.29 119.153 184.011 119.043 183.771 119.149L182.126 119.868L181.407 118.223C181.303 117.983 181.023 117.873 180.783 117.978C180.543 118.084 180.434 118.362 180.539 118.602L181.258 120.247L179.613 120.966C179.373 121.071 179.263 121.349 179.369 121.589C179.421 121.709 179.517 121.796 179.63 121.84C179.743 121.884 179.873 121.885 179.993 121.834L181.638 121.115L182.357 122.76C182.41 122.88 182.506 122.967 182.619 123.011C182.732 123.055 182.862 123.055 182.982 123.004C183.222 122.899 183.332 122.621 183.226 122.381L182.507 120.736L184.152 120.017C184.39 119.912 184.499 119.633 184.394 119.393Z" fill="white"/>
</g>
<g opacity="0.45">
<path d="M328.929 64.7676C326.216 69.5978 327.937 75.7344 332.766 78.4478C337.595 81.1613 343.733 79.4399 346.447 74.6097C349.16 69.7795 347.439 63.6428 342.608 60.9292C337.778 58.2156 331.643 59.9374 328.929 64.7676ZM345.622 74.1461C343.163 78.5212 337.605 80.0799 333.231 77.6219C328.857 75.1638 327.297 69.6053 329.755 65.2313C332.213 60.8574 337.772 59.2975 342.146 61.7556C346.52 64.2137 348.079 69.7719 345.622 74.1461Z" fill="white"/>
<path d="M332.747 70.5023C332.619 70.7309 332.7 71.0188 332.928 71.1473L335.427 72.5516C335.655 72.68 335.943 72.5989 336.072 72.3704C336.2 72.1418 336.119 71.8538 335.891 71.7254L333.392 70.3211C333.163 70.1938 332.875 70.2749 332.747 70.5023Z" fill="white"/>
<path d="M335.814 65.0453C335.685 65.2739 335.766 65.5618 335.995 65.6903L338.493 67.0945C338.722 67.223 339.01 67.1419 339.138 66.9133C339.267 66.6847 339.186 66.3968 338.957 66.2684L336.459 64.8641C336.231 64.7358 335.942 64.8167 335.814 65.0453Z" fill="white"/>
<path d="M340.721 69.169C340.469 69.2391 340.322 69.5006 340.393 69.7527L340.878 71.4812L339.15 71.9664C338.898 72.0365 338.751 72.298 338.822 72.5501C338.893 72.8022 339.153 72.9494 339.406 72.8782L341.134 72.393L341.619 74.1214C341.69 74.3736 341.951 74.5207 342.203 74.4495C342.329 74.4139 342.428 74.3312 342.488 74.2248C342.547 74.1196 342.566 73.9905 342.531 73.8647L342.046 72.1362L343.774 71.651C343.9 71.6154 344 71.5327 344.059 71.4263C344.118 71.3211 344.137 71.192 344.103 71.0662C344.031 70.8141 343.771 70.6669 343.519 70.7381L341.791 71.2233L341.305 69.4948C341.235 69.2452 340.973 69.0978 340.721 69.169Z" fill="white"/>
</g>
</g>
<defs>
<filter id="filter0_d_27829_62897" x="9" y="70" width="118" height="41" filterUnits="userSpaceOnUse" color-interpolation-filters="sRGB">
<feFlood flood-opacity="0" result="BackgroundImageFix"/>
<feColorMatrix in="SourceAlpha" type="matrix" values="0 0 0 0 0 0 0 0 0 0 0 0 0 0 0 0 0 0 127 0" result="hardAlpha"/>
<feOffset dy="4"/>
<feGaussianBlur stdDeviation="4"/>
<feComposite in2="hardAlpha" operator="out"/>
<feColorMatrix type="matrix" values="0 0 0 0 0 0 0 0 0 0 0 0 0 0 0 0 0 0 0.2 0"/>
<feBlend mode="normal" in2="BackgroundImageFix" result="effect1_dropShadow_27829_62897"/>
<feBlend mode="normal" in="SourceGraphic" in2="effect1_dropShadow_27829_62897" result="shape"/>
</filter>
<radialGradient id="paint0_radial_27829_62897" cx="0" cy="0" r="1" gradientUnits="userSpaceOnUse" gradientTransform="translate(345 -35.5) rotate(155.876) scale(378.015 1053.56)">
<stop offset="0.111694" stop-color="#1ABCFE"/>
<stop offset="1" stop-color="#0566EB"/>
</radialGradient>
<clipPath id="clip0_27829_62897">
<rect width="345" height="122" rx="14" fill="white"/>
</clipPath>
</defs>
</svg>
