<svg width="26" height="28" viewBox="0 0 26 28" fill="none" xmlns="http://www.w3.org/2000/svg">
<line x1="2.1498" y1="7.51092" x2="23.6012" y2="19.8959" stroke="white" stroke-width="1.03109"/>
<line y1="-0.515547" x2="24.77" y2="-0.515547" transform="matrix(-0.866025 0.5 0.5 0.866025 23.3435 7.9574)" stroke="white" stroke-width="1.03109"/>
<line x1="12.9161" y1="1.57715" x2="12.9161" y2="26.3471" stroke="white" stroke-width="1.03109"/>
<path d="M15.5906 7.7697L12.5882 10.5845L9.77339 7.7697" stroke="white" stroke-width="1.03109"/>
<path d="M19.6531 13.4244L15.4666 12.1342L16.9041 8.52028" stroke="white" stroke-width="1.03109"/>
<path d="M16.9041 19.7793L15.9659 15.8387L19.7189 14.7128" stroke="white" stroke-width="1.03109"/>
<path d="M9.58572 20.1546L12.5881 17.3398L15.5906 20.1546" stroke="white" stroke-width="1.03109"/>
<path d="M5.64503 14.7127L9.39805 15.8386L8.64745 19.5917" stroke="white" stroke-width="1.03109"/>
<path d="M15.7782 4.57957L12.5881 1.57715L9.39806 4.57957" stroke="white" stroke-width="1.03109"/>
<path d="M22.2635 11.941L23.2979 7.68408L19.1114 6.39385" stroke="white" stroke-width="1.03109"/>
<path d="M19.4499 21.4385L23.6599 20.2273L22.7059 15.9517" stroke="white" stroke-width="1.03109"/>
<path d="M9.43398 23.3442L12.5879 26.3846L15.8137 23.4205" stroke="white" stroke-width="1.03109"/>
<path d="M2.6218 16.0801L1.55455 20.3289L5.73091 21.6514" stroke="white" stroke-width="1.03109"/>
<path d="M6.23316 6.49002L2.02183 7.69656L2.97115 11.9732" stroke="white" stroke-width="1.03109"/>
</svg>
