<?xml version="1.0" standalone="no"?>
<!DOCTYPE svg PUBLIC "-//W3C//DTD SVG 20010904//EN"
 "http://www.w3.org/TR/2001/REC-SVG-20010904/DTD/svg10.dtd">
<svg version="1.0" xmlns="http://www.w3.org/2000/svg"
 width="500.000000pt" height="500.000000pt" viewBox="0 0 400.000000 300.000000"
 preserveAspectRatio="xMidYMid meet">

<g transform="translate(0.000000,300.000000) scale(0.100000,-0.100000)"
fill="#FEFF86" stroke="none">
<path d="M1850 2014 c-80 -64 -147 -118 -150 -121 -3 -3 59 27 138 66 78 39
142 69 142 67 0 -3 -54 -46 -120 -97 -66 -50 -120 -94 -120 -96 0 -2 12 3 28
11 74 41 215 106 202 93 -8 -8 -67 -56 -130 -107 -63 -51 -110 -91 -105 -89
25 10 202 103 222 116 51 34 17 -6 -60 -70 -45 -37 -102 -86 -127 -108 l-45
-40 110 57 c61 31 116 62 123 67 7 5 14 8 17 6 2 -3 -63 -60 -145 -128 -83
-68 -148 -126 -146 -130 5 -7 131 -288 153 -341 25 -60 -1 -21 -101 149 l-97
163 11 122 c5 66 12 137 15 156 7 53 -6 12 -55 -174 l-42 -159 33 -46 c18 -25
73 -99 121 -163 49 -65 86 -118 82 -118 -3 0 -42 34 -87 75 -44 42 -84 74 -87
73 -4 -2 -41 -34 -83 -72 l-76 -69 117 -54 c64 -30 183 -84 265 -120 l147 -66
108 48 c59 26 134 61 167 76 33 15 104 47 157 72 l98 44 -88 78 c-48 43 -93
84 -100 90 -11 10 -6 23 30 71 25 33 48 64 52 71 3 6 -19 113 -50 237 l-57
226 -156 125 c-86 69 -158 125 -161 125 -3 0 -70 -52 -150 -116z m160 -494 c0
-21 -6 -41 -12 -44 -10 -5 -10 -7 0 -12 6 -3 10 -10 6 -15 -3 -5 2 -12 10 -15
24 -9 19 -24 -8 -24 -32 0 -76 -17 -76 -29 0 -5 14 -6 34 -1 46 10 66 -2 43
-28 -23 -25 -22 -31 8 -42 38 -15 27 -52 -23 -79 -30 -16 -84 1 -111 35 -48
61 -34 175 24 200 19 8 35 23 38 36 8 30 45 70 58 63 5 -4 9 -24 9 -45z m339
-24 c9 -11 -8 -48 -85 -177 -95 -162 -123 -204 -107 -164 44 112 160 355 169
355 6 0 17 -6 23 -14z"/>
</g>
</svg>
